SplineFontDB: 3.2
FontName: eEraDua
FullName: Era Dua
FamilyName: e Era Dua
Weight: Book
Copyright: Copyright (c) 2022, wep
Version: 001.000
ItalicAngle: 0
UnderlinePosition: -101
UnderlineWidth: 51
Ascent: 768
Descent: 256
InvalidEm: 0
sfntRevision: 0x00010000
LayerCount: 2
Layer: 0 1 "Atr+AOEA-s" 1
Layer: 1 1 "Fore" 0
XUID: [1021 172 1289435963 5943]
StyleMap: 0x0000
FSType: 0
OS2Version: 4
OS2_WeightWidthSlopeOnly: 0
OS2_UseTypoMetrics: 1
CreationTime: 1643760835
ModificationTime: 1697214459
PfmFamily: 17
TTFWeight: 400
TTFWidth: 5
LineGap: 92
VLineGap: 0
Panose: 2 0 5 3 0 0 0 0 0 0
OS2TypoAscent: 768
OS2TypoAOffset: 0
OS2TypoDescent: -256
OS2TypoDOffset: 0
OS2TypoLinegap: 92
OS2WinAscent: 811
OS2WinAOffset: 0
OS2WinDescent: 254
OS2WinDOffset: 0
HheadAscent: 811
HheadAOffset: 0
HheadDescent: -254
HheadDOffset: 0
OS2SubXSize: 665
OS2SubYSize: 716
OS2SubXOff: 0
OS2SubYOff: 143
OS2SupXSize: 665
OS2SupYSize: 716
OS2SupXOff: 0
OS2SupYOff: 491
OS2StrikeYSize: 51
OS2StrikeYPos: 265
OS2CapHeight: 748
OS2XHeight: 549
OS2Vendor: 'PfEd'
OS2CodePages: 00000001.00000000
OS2UnicodeRanges: 00000001.00000000.00000000.00000000
Lookup: 258 0 0 "'kern' Interletraje horizontal en Latin b+APoA-squeda 0" { "'kern' Interletraje horizontal en Latin b+APoA-squeda 0 datos por glifo 0"  "'kern' Interletraje horizontal en Latin b+APoA-squeda 0 datos por glifo 1"  "'kern' Interletraje horizontal en Latin b+APoA-squeda 0 datos por glifo 2"  "'kern' Interletraje horizontal en Latin b+APoA-squeda 0 datos por glifo 3"  "'kern' Interletraje horizontal en Latin b+APoA-squeda 0 datos por glifo 4"  "'kern' Interletraje horizontal en Latin b+APoA-squeda 0 datos por glifo 5"  } ['kern' ('DFLT' <'dflt' > 'latn' <'dflt' > ) ]
MarkAttachClasses: 1
DEI: 91125
TtTable: prep
PUSHW_1
 511
SCANCTRL
PUSHB_1
 1
SCANTYPE
SVTCA[y-axis]
MPPEM
PUSHB_1
 8
LT
IF
PUSHB_2
 1
 1
INSTCTRL
EIF
PUSHB_2
 70
 6
CALL
IF
POP
PUSHB_1
 16
EIF
MPPEM
PUSHB_1
 20
GT
IF
POP
PUSHB_1
 128
EIF
SCVTCI
PUSHB_1
 6
CALL
NOT
IF
EIF
PUSHB_1

StartChar: .notdef
Encoding: 65536 -1 0
Width: 495
GlyphClass: 1
Flags: W
LayerCount: 2
Fore
SplineSet
187 271 m 1,0,-1
 191 311 l 1,1,-1
 215 262 l 1,2,-1
 206 259 l 1,3,-1
 187 271 l 1,0,-1
125 243 m 1,4,-1
 183 189 l 1,5,-1
 200 184 l 1,6,-1
 231 180 l 1,7,-1
 334 222 l 1,8,-1
 348 240 l 1,9,-1
 343 258 l 1,10,-1
 340 273 l 1,11,-1
 341 278 l 1,12,-1
 345 301 l 1,13,-1
 324 358 l 1,14,-1
 292 392 l 1,15,16
 287 391 287 391 276 388.5 c 128,-1,17
 265 386 265 386 260 385 c 1,18,-1
 260 353 l 1,19,-1
 267 323 l 1,20,-1
 274 313 l 1,21,-1
 280 304 l 1,22,-1
 286 295 l 1,23,-1
 279 252 l 1,24,25
 268 268 268 268 252 288 c 2,26,-1
 241 302 l 1,27,-1
 232 327 l 1,28,-1
 188 387 l 1,29,-1
 151 364 l 1,30,-1
 125 323 l 1,31,-1
 120 300 l 1,32,-1
 125 296 l 1,33,-1
 130 274 l 1,34,-1
 127 251 l 1,35,-1
 125 243 l 1,4,-1
194 539 m 1,36,-1
 208 571 l 1,37,-1
 211 569 l 1,38,-1
 244 566 l 1,39,-1
 274 557 l 1,40,-1
 280 548 l 1,41,-1
 286 535 l 2,42,43
 285 530 285 530 283.5 519 c 128,-1,44
 282 508 282 508 281 503 c 1,45,-1
 243 503 l 1,46,-1
 204 507 l 1,47,-1
 199 511 l 1,48,-1
 194 539 l 1,36,-1
374 493 m 1,49,-1
 315 483 l 1,50,-1
 308 484 l 1,51,-1
 341 518 l 1,52,-1
 345 544 l 1,53,-1
 348 569 l 1,54,-1
 353 586 l 1,55,-1
 342 613 l 1,56,-1
 287 642 l 1,57,-1
 267 644 l 1,58,-1
 260 638 l 1,59,-1
 249 633 l 1,60,-1
 224 635 l 1,61,-1
 189 637 l 1,62,63
 181 630 181 630 124 573 c 1,64,-1
 133 545 l 1,65,-1
 131 541 l 1,66,-1
 128 517 l 1,67,-1
 129 478 l 1,68,-1
 131 418 l 1,69,-1
 151 418 l 1,70,-1
 172 423 l 1,71,-1
 205 434 l 1,72,-1
 209 433 l 1,73,-1
 249 428 l 1,74,-1
 348 421 l 1,75,-1
 368 421 l 1,76,-1
 426 422 l 1,77,-1
 426 452 l 1,78,-1
 414 487 l 1,79,-1
 374 493 l 1,49,-1
138 -15 m 1,80,-1
 252 -55 l 1,81,-1
 225 -63 l 1,82,-1
 209 -48 l 1,83,-1
 158 -57 l 1,84,-1
 151 -62 l 1,85,-1
 152 -66 l 1,86,-1
 141 -72 l 1,87,-1
 130 -74 l 1,88,-1
 130 -101 l 1,89,-1
 143 -131 l 1,90,-1
 199 -125 l 1,91,-1
 219 -129 l 1,92,-1
 240 -125 l 1,93,-1
 292 -111 l 1,94,-1
 339 -100 l 1,95,-1
 341 -26 l 1,96,-1
 331 -22 l 1,97,-1
 283 -11 l 1,98,-1
 271 -8 l 1,99,-1
 263 -9 l 1,100,-1
 243 -1 l 1,101,-1
 294 19 l 1,102,-1
 341 35 l 1,103,-1
 341 111 l 1,104,-1
 326 115 l 1,105,-1
 302 118 l 1,106,-1
 269 127 l 1,107,-1
 267 126 l 1,108,-1
 249 123 l 1,109,-1
 231 129 l 1,110,-1
 231 135 l 1,111,-1
 203 151 l 1,112,-1
 177 156 l 1,113,-1
 165 150 l 1,114,-1
 132 156 l 1,115,-1
 131 140 l 1,116,-1
 131 127 l 1,117,-1
 132 98 l 1,118,-1
 176 92 l 1,119,-1
 252 79 l 1,120,-1
 236 67 l 1,121,-1
 219 56 l 1,122,-1
 211 74 l 1,123,-1
 188 69 l 1,124,-1
 167 55 l 1,125,-1
 155 46 l 1,126,-1
 142 44 l 1,127,-1
 139 16 l 1,128,-1
 138 -7 l 1,129,-1
 138 -15 l 1,80,-1
51 731 m 1,130,-1
 444 731 l 1,131,-1
 444 -218 l 1,132,-1
 51 -218 l 1,133,-1
 51 731 l 1,130,-1
EndSplineSet
EndChar

StartChar: exclam
Encoding: 33 33 4
Width: 293
GlyphClass: 2
Flags: W
LayerCount: 2
Fore
SplineSet
83 219 m 1,0,-1
 83 275 l 1,1,-1
 69 275 l 1,2,-1
 58 372 l 1,3,-1
 73 372 l 1,4,-1
 73 541 l 1,5,-1
 91 541 l 1,6,-1
 60 637 l 1,7,-1
 42 637 l 1,8,-1
 42 748 l 1,9,-1
 237 748 l 1,10,-1
 226 465 l 1,11,-1
 257 465 l 1,12,-1
 257 293 l 1,13,-1
 204 293 l 1,14,-1
 212 219 l 1,15,-1
 83 219 l 1,0,-1
78 -7 m 1,16,-1
 78 31 l 1,17,-1
 46 31 l 1,18,-1
 50 127 l 1,19,-1
 102 127 l 1,20,-1
 102 146 l 1,21,-1
 251 142 l 1,22,-1
 265 114 l 1,23,-1
 247 114 l 1,24,-1
 247 10 l 1,25,-1
 198 10 l 1,26,-1
 198 -10 l 1,27,-1
 78 -7 l 1,16,-1
EndSplineSet
EndChar

StartChar: numbersign
Encoding: 35 35 6
Width: 1024
GlyphClass: 2
Flags: W
LayerCount: 2
Fore
SplineSet
669 558 m 1,0,-1
 673 567 l 1,1,-1
 689 561 l 1,2,-1
 706 663 l 1,3,-1
 689 668 l 1,4,-1
 735 748 l 1,5,-1
 920 748 l 1,6,-1
 833 563 l 1,7,-1
 1024 582 l 1,8,-1
 942 404 l 1,9,-1
 840 403 l 1,10,-1
 842 423 l 1,11,-1
 797 419 l 1,12,-1
 742 306 l 1,13,-1
 904 322 l 1,14,-1
 821 144 l 1,15,-1
 720 143 l 1,16,-1
 721 163 l 1,17,-1
 645 155 l 1,18,-1
 610 97 l 1,19,-1
 629 90 l 1,20,-1
 586 -2 l 1,21,-1
 390 -2 l 1,22,-1
 467 131 l 1,23,-1
 343 129 l 1,24,-1
 324 97 l 1,25,-1
 342 90 l 1,26,-1
 299 -2 l 1,27,-1
 103 -2 l 1,28,-1
 197 158 l 1,29,-1
 1 156 l 1,30,-1
 79 324 l 1,31,-1
 170 332 l 1,32,-1
 168 314 l 1,33,-1
 263 287 l 1,34,-1
 267 297 l 1,35,-1
 268 304 l 1,36,-1
 270 304 l 1,37,-1
 321 418 l 1,38,-1
 122 416 l 1,39,-1
 199 584 l 1,40,-1
 291 592 l 1,41,-1
 289 574 l 1,42,-1
 378 549 l 1,43,-1
 386 567 l 1,44,-1
 395 564 l 1,45,-1
 403 564 l 1,46,-1
 419 663 l 1,47,-1
 402 668 l 1,48,-1
 449 748 l 1,49,-1
 633 748 l 1,50,-1
 545 561 l 1,51,-1
 669 558 l 1,0,-1
596 391 m 1,52,-1
 496 390 l 1,53,-1
 454 300 l 1,54,-1
 555 298 l 1,55,-1
 596 391 l 1,52,-1
EndSplineSet
EndChar

StartChar: dollar
Encoding: 36 36 7
Width: 625
GlyphClass: 2
Flags: W
LayerCount: 2
Fore
SplineSet
434 287 m 1,0,-1
 434 289 l 1,1,-1
 433 289 l 1,2,-1
 434 287 l 1,0,-1
182 459 m 1,3,-1
 182 457 l 1,4,-1
 183 457 l 1,5,-1
 182 459 l 1,3,-1
194 809 m 1,6,-1
 388 809 l 1,7,-1
 384 739 l 1,8,-1
 393 743 l 1,9,-1
 393 748 l 1,10,-1
 407 748 l 1,11,-1
 438 758 l 1,12,-1
 438 776 l 1,13,-1
 584 631 l 1,14,-1
 579 503 l 1,15,-1
 424 503 l 1,16,-1
 424 541 l 1,17,-1
 442 541 l 1,18,-1
 428 586 l 1,19,-1
 256 592 l 1,20,-1
 256 561 l 1,21,-1
 202 561 l 1,22,-1
 207 483 l 1,23,-1
 229 483 l 1,24,-1
 226 457 l 1,25,-1
 326 457 l 1,26,-1
 326 444 l 1,27,-1
 343 443 l 1,28,-1
 422 469 l 1,29,-1
 571 331 l 1,30,-1
 571 205 l 1,31,-1
 553 205 l 1,32,-1
 584 109 l 1,33,-1
 454 -14 l 1,34,-1
 454 -2 l 1,35,-1
 408 -2 l 1,36,-1
 408 0 l 1,37,-1
 388 0 l 1,38,-1
 388 -104 l 1,39,-1
 194 -104 l 1,40,-1
 199 -5 l 1,41,-1
 178 -12 l 1,42,-1
 178 -31 l 1,43,-1
 33 115 l 1,44,-1
 38 243 l 1,45,-1
 193 243 l 1,46,-1
 193 205 l 1,47,-1
 174 205 l 1,48,-1
 188 160 l 1,49,-1
 360 154 l 1,50,-1
 360 184 l 1,51,-1
 414 184 l 1,52,-1
 410 262 l 1,53,-1
 387 262 l 1,54,-1
 390 289 l 1,55,-1
 291 289 l 1,56,-1
 291 307 l 1,57,-1
 240 311 l 1,58,-1
 240 307 l 1,59,-1
 226 307 l 1,60,-1
 195 297 l 1,61,-1
 45 415 l 1,62,-1
 45 541 l 1,63,-1
 63 541 l 1,64,-1
 33 637 l 1,65,-1
 163 760 l 1,66,-1
 163 748 l 1,67,-1
 194 748 l 1,68,-1
 194 809 l 1,6,-1
EndSplineSet
EndChar

StartChar: percent
Encoding: 37 37 8
Width: 849
GlyphClass: 2
Flags: W
LayerCount: 2
Fore
SplineSet
256 228 m 1,0,-1
 404 567 l 1,1,-1
 421 561 l 1,2,-1
 437 663 l 1,3,-1
 421 668 l 1,4,-1
 467 748 l 1,5,-1
 651 748 l 1,6,-1
 509 446 l 1,7,-1
 537 437 l 1,8,-1
 459 273 l 1,9,-1
 411 291 l 1,10,-1
 377 196 l 1,11,-1
 397 188 l 1,12,-1
 342 97 l 1,13,-1
 360 90 l 1,14,-1
 317 -2 l 1,15,-1
 121 -2 l 1,16,-1
 256 228 l 1,0,-1
105 667 m 1,17,-1
 103 618 l 1,18,-1
 119 618 l 1,19,-1
 119 532 l 1,20,-1
 92 532 l 1,21,-1
 97 484 l 1,22,-1
 109 484 l 1,23,-1
 106 466 l 1,24,-1
 177 464 l 1,25,-1
 177 479 l 1,26,-1
 201 479 l 1,27,-1
 201 524 l 1,28,-1
 194 524 l 1,29,-1
 204 571 l 1,30,-1
 211 571 l 1,31,-1
 211 656 l 1,32,-1
 220 656 l 1,33,-1
 213 679 l 1,34,-1
 132 682 l 1,35,-1
 132 667 l 1,36,-1
 105 667 l 1,17,-1
196 758 m 1,37,-1
 196 760 l 1,38,-1
 202 760 l 1,39,-1
 218 765 l 1,40,-1
 218 774 l 1,41,-1
 291 701 l 1,42,-1
 288 618 l 1,43,-1
 303 618 l 1,44,-1
 303 532 l 1,45,-1
 276 532 l 1,46,-1
 282 484 l 1,47,-1
 293 469 l 1,48,-1
 201 386 l 1,49,-1
 201 387 l 1,50,-1
 139 387 l 1,51,-1
 139 396 l 1,52,-1
 114 388 l 1,53,-1
 114 386 l 1,54,-1
 108 386 l 1,55,-1
 91 381 l 1,56,-1
 16 451 l 1,57,-1
 16 524 l 1,58,-1
 9 524 l 1,59,-1
 19 571 l 1,60,-1
 27 571 l 1,61,-1
 27 656 l 1,62,-1
 36 656 l 1,63,-1
 20 705 l 1,64,-1
 86 766 l 1,65,-1
 86 760 l 1,66,-1
 109 760 l 1,67,-1
 109 759 l 1,68,-1
 170 759 l 1,69,-1
 170 750 l 1,70,-1
 196 758 l 1,37,-1
622 268 m 1,71,-1
 620 220 l 1,72,-1
 635 220 l 1,73,-1
 635 134 l 1,74,-1
 608 134 l 1,75,-1
 613 86 l 1,76,-1
 625 86 l 1,77,-1
 623 68 l 1,78,-1
 693 66 l 1,79,-1
 693 81 l 1,80,-1
 717 81 l 1,81,-1
 717 125 l 1,82,-1
 710 125 l 1,83,-1
 720 174 l 1,84,-1
 727 174 l 1,85,-1
 727 258 l 1,86,-1
 736 258 l 1,87,-1
 729 281 l 1,88,-1
 648 284 l 1,89,-1
 648 268 l 1,90,-1
 622 268 l 1,71,-1
712 359 m 1,91,-1
 712 361 l 1,92,-1
 718 361 l 1,93,-1
 734 367 l 1,94,-1
 734 376 l 1,95,-1
 807 303 l 1,96,-1
 804 220 l 1,97,-1
 819 220 l 1,98,-1
 819 134 l 1,99,-1
 793 134 l 1,100,-1
 798 86 l 1,101,-1
 809 71 l 1,102,-1
 717 -12 l 1,103,-1
 717 -11 l 1,104,-1
 655 -11 l 1,105,-1
 655 -2 l 1,106,-1
 630 -10 l 1,107,-1
 630 -12 l 1,108,-1
 623 -12 l 1,109,-1
 607 -17 l 1,110,-1
 532 51 l 1,111,-1
 532 125 l 1,112,-1
 525 125 l 1,113,-1
 536 174 l 1,114,-1
 543 174 l 1,115,-1
 543 258 l 1,116,-1
 552 258 l 1,117,-1
 537 306 l 1,118,-1
 601 368 l 1,119,-1
 601 361 l 1,120,-1
 625 361 l 1,121,-1
 625 360 l 1,122,-1
 686 360 l 1,123,-1
 686 351 l 1,124,-1
 712 359 l 1,91,-1
EndSplineSet
EndChar

StartChar: ampersand
Encoding: 38 38 9
Width: 628
GlyphClass: 2
Flags: W
LayerCount: 2
Fore
SplineSet
524 516 m 1,0,-1
 524 445 l 1,1,-1
 596 446 l 1,2,-1
 596 372 l 1,3,-1
 610 372 l 1,4,-1
 629 285 l 1,5,-1
 524 285 l 1,6,-1
 524 283 l 1,7,-1
 492 283 l 1,8,-1
 499 176 l 1,9,-1
 505 179 l 1,10,-1
 575 180 l 1,11,-1
 575 78 l 1,12,-1
 590 19 l 1,13,-1
 535 7 l 1,14,-1
 535 -82 l 1,15,-1
 381 -82 l 1,16,-1
 349 4 l 1,17,-1
 330 10 l 1,18,-1
 330 -8 l 1,19,-1
 222 -8 l 1,20,-1
 222 -23 l 1,21,-1
 146 -43 l 1,22,-1
 146 -29 l 1,23,-1
 43 37 l 1,24,-1
 23 209 l 1,25,-1
 53 209 l 1,26,-1
 47 329 l 1,27,-1
 120 384 l 1,28,-1
 74 426 l 1,29,-1
 53 506 l 1,30,-1
 84 506 l 1,31,-1
 78 636 l 1,32,-1
 206 758 l 1,33,-1
 271 727 l 1,34,-1
 271 745 l 1,35,-1
 391 745 l 1,36,-1
 391 748 l 1,37,-1
 410 748 l 1,38,-1
 410 760 l 1,39,-1
 506 780 l 1,40,-1
 506 766 l 1,41,-1
 504 748 l 1,42,-1
 555 748 l 1,43,-1
 555 637 l 1,44,-1
 537 637 l 1,45,-1
 512 561 l 1,46,-1
 347 561 l 1,47,-1
 347 592 l 1,48,-1
 233 586 l 1,49,-1
 219 541 l 1,50,-1
 238 541 l 1,51,-1
 238 473 l 1,52,-1
 274 473 l 1,53,-1
 274 442 l 1,54,-1
 360 443 l 1,55,-1
 360 500 l 1,56,-1
 379 500 l 1,57,-1
 524 516 l 1,0,-1
340 146 m 1,58,-1
 340 194 l 1,59,-1
 326 194 l 1,60,-1
 346 290 l 1,61,-1
 360 290 l 1,62,-1
 360 312 l 1,63,-1
 347 315 l 1,64,-1
 223 309 l 1,65,-1
 209 264 l 1,66,-1
 227 264 l 1,67,-1
 227 176 l 1,68,-1
 274 176 l 1,69,-1
 274 145 l 1,70,-1
 340 146 l 1,58,-1
EndSplineSet
EndChar

StartChar: quotesingle
Encoding: 39 39 10
Width: 291
GlyphClass: 2
Flags: W
LayerCount: 2
Fore
SplineSet
48 748 m 1,0,-1
 243 748 l 1,1,-1
 232 465 l 1,2,-1
 100 479 l 1,3,-1
 97 541 l 1,4,-1
 67 637 l 1,5,-1
 48 637 l 1,6,-1
 48 748 l 1,0,-1
EndSplineSet
EndChar

StartChar: parenleft
Encoding: 40 40 11
Width: 378
GlyphClass: 2
Flags: W
LayerCount: 2
Fore
SplineSet
337 -141 m 1,0,-1
 288 -141 l 1,1,-1
 288 -123 l 1,2,-1
 237 -139 l 1,3,-1
 237 -143 l 1,4,-1
 223 -143 l 1,5,-1
 191 -154 l 1,6,-1
 42 -15 l 1,7,-1
 42 194 l 1,8,-1
 28 194 l 1,9,-1
 48 372 l 1,10,-1
 62 372 l 1,11,-1
 62 592 l 1,12,-1
 81 592 l 1,13,-1
 50 688 l 1,14,-1
 180 811 l 1,15,-1
 180 799 l 1,16,-1
 226 799 l 1,17,-1
 226 797 l 1,18,-1
 337 797 l 1,19,-1
 337 641 l 1,20,-1
 273 643 l 1,21,-1
 273 612 l 1,22,-1
 219 612 l 1,23,-1
 216 465 l 1,24,-1
 247 465 l 1,25,-1
 247 211 l 1,26,-1
 194 211 l 1,27,-1
 204 53 l 1,28,-1
 226 53 l 1,29,-1
 222 17 l 1,30,-1
 337 13 l 1,31,-1
 337 -141 l 1,0,-1
EndSplineSet
EndChar

StartChar: parenright
Encoding: 41 41 12
Width: 377
GlyphClass: 2
Flags: W
LayerCount: 2
Fore
SplineSet
41 799 m 1,0,-1
 90 799 l 1,1,-1
 90 780 l 1,2,-1
 141 797 l 1,3,-1
 141 801 l 1,4,-1
 155 801 l 1,5,-1
 186 811 l 1,6,-1
 336 673 l 1,7,-1
 336 464 l 1,8,-1
 350 464 l 1,9,-1
 330 286 l 1,10,-1
 315 286 l 1,11,-1
 315 66 l 1,12,-1
 297 66 l 1,13,-1
 328 -31 l 1,14,-1
 198 -154 l 1,15,-1
 198 -141 l 1,16,-1
 152 -141 l 1,17,-1
 152 -139 l 1,18,-1
 41 -139 l 1,19,-1
 41 16 l 1,20,-1
 104 14 l 1,21,-1
 104 45 l 1,22,-1
 159 45 l 1,23,-1
 162 193 l 1,24,-1
 131 193 l 1,25,-1
 131 446 l 1,26,-1
 184 446 l 1,27,-1
 174 604 l 1,28,-1
 152 604 l 1,29,-1
 156 640 l 1,30,-1
 41 644 l 1,31,-1
 41 799 l 1,0,-1
EndSplineSet
EndChar

StartChar: asterisk
Encoding: 42 42 13
Width: 558
GlyphClass: 2
Flags: W
LayerCount: 2
Fore
SplineSet
173 748 m 1,0,-1
 368 748 l 1,1,-1
 365 666 l 1,2,-1
 463 697 l 1,3,-1
 522 513 l 1,4,-1
 444 490 l 1,5,-1
 505 407 l 1,6,-1
 347 293 l 1,7,-1
 302 360 l 1,8,-1
 241 276 l 1,9,-1
 84 391 l 1,10,-1
 134 456 l 1,11,-1
 36 487 l 1,12,-1
 96 673 l 1,13,-1
 173 644 l 1,14,-1
 173 748 l 1,0,-1
EndSplineSet
EndChar

StartChar: plus
Encoding: 43 43 14
Width: 619
GlyphClass: 2
Flags: W
LayerCount: 2
Fore
SplineSet
49 217 m 1,0,-1
 49 412 l 1,1,-1
 218 407 l 1,2,-1
 219 413 l 1,3,-1
 234 413 l 1,4,-1
 234 589 l 1,5,-1
 254 589 l 1,6,-1
 404 603 l 1,7,-1
 404 432 l 1,8,-1
 555 432 l 1,9,-1
 555 379 l 1,10,-1
 572 227 l 1,11,-1
 572 213 l 1,12,-1
 435 233 l 1,13,-1
 435 248 l 1,14,-1
 403 248 l 1,15,-1
 394 135 l 1,16,-1
 416 135 l 1,17,-1
 416 52 l 1,18,-1
 256 52 l 1,19,-1
 213 146 l 1,20,-1
 213 240 l 1,21,-1
 201 236 l 1,22,-1
 201 217 l 1,23,-1
 49 217 l 1,0,-1
EndSplineSet
EndChar

StartChar: comma
Encoding: 44 44 15
Width: 303
GlyphClass: 2
Flags: W
LayerCount: 2
Fore
SplineSet
102 -56 m 1,0,-1
 134 -35 l 1,1,-1
 116 -9 l 1,2,-1
 75 -7 l 1,3,-1
 75 31 l 1,4,-1
 43 31 l 1,5,-1
 47 127 l 1,6,-1
 99 127 l 1,7,-1
 99 146 l 1,8,-1
 248 142 l 1,9,-1
 262 114 l 1,10,-1
 244 114 l 1,11,-1
 244 10 l 1,12,-1
 183 -146 l 1,13,-1
 167 -158 l 1,14,-1
 102 -56 l 1,0,-1
EndSplineSet
EndChar

StartChar: hyphen
Encoding: 45 45 16
Width: 541
GlyphClass: 2
Flags: W
LayerCount: 2
Fore
SplineSet
50 217 m 1,0,-1
 50 412 l 1,1,-1
 333 401 l 1,2,-1
 333 432 l 1,3,-1
 474 432 l 1,4,-1
 474 379 l 1,5,-1
 492 227 l 1,6,-1
 492 213 l 1,7,-1
 395 233 l 1,8,-1
 395 248 l 1,9,-1
 257 248 l 1,10,-1
 257 266 l 1,11,-1
 161 236 l 1,12,-1
 161 217 l 1,13,-1
 50 217 l 1,0,-1
EndSplineSet
EndChar

StartChar: period
Encoding: 46 46 17
Width: 309
GlyphClass: 2
Flags: W
LayerCount: 2
Fore
SplineSet
78 -7 m 1,0,-1
 78 31 l 1,1,-1
 46 31 l 1,2,-1
 50 127 l 1,3,-1
 102 127 l 1,4,-1
 102 146 l 1,5,-1
 251 142 l 1,6,-1
 265 114 l 1,7,-1
 247 114 l 1,8,-1
 247 10 l 1,9,-1
 198 10 l 1,10,-1
 198 -10 l 1,11,-1
 78 -7 l 1,0,-1
EndSplineSet
EndChar

StartChar: slash
Encoding: 47 47 18
Width: 518
GlyphClass: 2
Flags: W
LayerCount: 2
Fore
SplineSet
128 228 m 1,0,-1
 278 567 l 1,1,-1
 294 561 l 1,2,-1
 309 663 l 1,3,-1
 293 668 l 1,4,-1
 339 748 l 1,5,-1
 524 748 l 1,6,-1
 382 446 l 1,7,-1
 410 437 l 1,8,-1
 332 273 l 1,9,-1
 284 291 l 1,10,-1
 249 196 l 1,11,-1
 269 188 l 1,12,-1
 215 97 l 1,13,-1
 233 90 l 1,14,-1
 189 -2 l 1,15,-1
 -6 -2 l 1,16,-1
 128 228 l 1,0,-1
EndSplineSet
EndChar

StartChar: zero
Encoding: 48 48 19
Width: 642
GlyphClass: 2
Flags: W
LayerCount: 2
Fore
SplineSet
223 561 m 1,0,-1
 220 465 l 1,1,-1
 251 465 l 1,2,-1
 251 293 l 1,3,-1
 198 293 l 1,4,-1
 208 197 l 1,5,-1
 230 197 l 1,6,-1
 226 161 l 1,7,-1
 368 156 l 1,8,-1
 368 186 l 1,9,-1
 415 186 l 1,10,-1
 415 275 l 1,11,-1
 400 275 l 1,12,-1
 421 372 l 1,13,-1
 435 372 l 1,14,-1
 435 541 l 1,15,-1
 454 541 l 1,16,-1
 439 586 l 1,17,-1
 278 592 l 1,18,-1
 278 561 l 1,19,-1
 223 561 l 1,0,-1
404 743 m 1,20,-1
 404 748 l 1,21,-1
 418 748 l 1,22,-1
 450 758 l 1,23,-1
 450 776 l 1,24,-1
 595 631 l 1,25,-1
 589 465 l 1,26,-1
 620 465 l 1,27,-1
 620 293 l 1,28,-1
 566 293 l 1,29,-1
 577 197 l 1,30,-1
 599 166 l 1,31,-1
 415 0 l 1,32,-1
 415 2 l 1,33,-1
 292 2 l 1,34,-1
 292 20 l 1,35,-1
 241 4 l 1,36,-1
 241 0 l 1,37,-1
 227 0 l 1,38,-1
 196 -10 l 1,39,-1
 46 128 l 1,40,-1
 46 275 l 1,41,-1
 32 275 l 1,42,-1
 52 372 l 1,43,-1
 67 372 l 1,44,-1
 67 541 l 1,45,-1
 85 541 l 1,46,-1
 54 637 l 1,47,-1
 184 760 l 1,48,-1
 184 748 l 1,49,-1
 230 748 l 1,50,-1
 230 745 l 1,51,-1
 353 745 l 1,52,-1
 353 727 l 1,53,-1
 404 743 l 1,20,-1
EndSplineSet
EndChar

StartChar: one
Encoding: 49 49 20
Width: 373
GlyphClass: 2
Flags: W
LayerCount: 2
Fore
SplineSet
134 518 m 1,0,-1
 104 543 l 1,1,-1
 84 518 l 1,2,-1
 12 583 l 1,3,-1
 46 623 l 1,4,-1
 31 636 l 1,5,-1
 128 748 l 1,6,-1
 323 748 l 1,7,-1
 312 465 l 1,8,-1
 343 465 l 1,9,-1
 343 293 l 1,10,-1
 290 293 l 1,11,-1
 300 197 l 1,12,-1
 323 197 l 1,13,-1
 312 96 l 1,14,-1
 333 96 l 1,15,-1
 333 0 l 1,16,-1
 138 0 l 1,17,-1
 138 275 l 1,18,-1
 124 275 l 1,19,-1
 144 372 l 1,20,-1
 159 372 l 1,21,-1
 159 541 l 1,22,-1
 177 541 l 1,23,-1
 171 561 l 1,24,-1
 134 518 l 1,0,-1
EndSplineSet
EndChar

StartChar: two
Encoding: 50 50 21
Width: 613
GlyphClass: 2
Flags: W
LayerCount: 2
Fore
SplineSet
302 436 m 1,0,-1
 337 432 l 1,1,-1
 337 463 l 1,2,-1
 404 463 l 1,3,-1
 404 541 l 1,4,-1
 423 541 l 1,5,-1
 409 586 l 1,6,-1
 264 592 l 1,7,-1
 264 520 l 1,8,-1
 69 520 l 1,9,-1
 44 637 l 1,10,-1
 26 637 l 1,11,-1
 26 748 l 1,12,-1
 77 748 l 1,13,-1
 75 766 l 1,14,-1
 75 780 l 1,15,-1
 171 760 l 1,16,-1
 171 748 l 1,17,-1
 220 748 l 1,18,-1
 220 745 l 1,19,-1
 319 745 l 1,20,-1
 319 727 l 1,21,-1
 374 746 l 1,22,-1
 374 748 l 1,23,-1
 377 748 l 1,24,-1
 406 758 l 1,25,-1
 564 636 l 1,26,-1
 558 465 l 1,27,-1
 589 465 l 1,28,-1
 568 324 l 1,29,-1
 465 258 l 1,30,-1
 465 244 l 1,31,-1
 389 264 l 1,32,-1
 389 279 l 1,33,-1
 343 279 l 1,34,-1
 343 297 l 1,35,-1
 224 238 l 1,36,-1
 228 197 l 1,37,-1
 219 162 l 1,38,-1
 319 162 l 1,39,-1
 319 143 l 1,40,-1
 467 174 l 1,41,-1
 467 193 l 1,42,-1
 578 193 l 1,43,-1
 578 -2 l 1,44,-1
 264 8 l 1,45,-1
 264 -23 l 1,46,-1
 92 -23 l 1,47,-1
 92 31 l 1,48,-1
 77 167 l 1,49,-1
 67 173 l 1,50,-1
 73 275 l 1,51,-1
 93 372 l 1,52,-1
 108 372 l 1,53,-1
 302 436 l 1,0,-1
EndSplineSet
EndChar

StartChar: three
Encoding: 51 51 22
Width: 607
GlyphClass: 2
Flags: W
LayerCount: 2
Fore
SplineSet
194 -18 m 1,0,-1
 22 19 l 1,1,-1
 36 78 l 1,2,-1
 36 180 l 1,3,-1
 106 179 l 1,4,-1
 176 147 l 1,5,-1
 337 145 l 1,6,-1
 337 176 l 1,7,-1
 384 176 l 1,8,-1
 384 264 l 1,9,-1
 402 264 l 1,10,-1
 388 309 l 1,11,-1
 264 315 l 1,12,-1
 131 285 l 1,13,-1
 116 285 l 1,14,-1
 134 372 l 1,15,-1
 148 372 l 1,16,-1
 148 446 l 1,17,-1
 337 442 l 1,18,-1
 337 473 l 1,19,-1
 374 473 l 1,20,-1
 374 541 l 1,21,-1
 392 541 l 1,22,-1
 378 586 l 1,23,-1
 264 592 l 1,24,-1
 264 561 l 1,25,-1
 99 561 l 1,26,-1
 75 637 l 1,27,-1
 56 637 l 1,28,-1
 56 748 l 1,29,-1
 108 748 l 1,30,-1
 105 766 l 1,31,-1
 105 780 l 1,32,-1
 202 760 l 1,33,-1
 202 748 l 1,34,-1
 220 748 l 1,35,-1
 220 745 l 1,36,-1
 340 745 l 1,37,-1
 340 727 l 1,38,-1
 406 758 l 1,39,-1
 534 636 l 1,40,-1
 527 506 l 1,41,-1
 558 506 l 1,42,-1
 538 426 l 1,43,-1
 492 384 l 1,44,-1
 564 329 l 1,45,-1
 558 209 l 1,46,-1
 589 209 l 1,47,-1
 568 37 l 1,48,-1
 465 -29 l 1,49,-1
 465 -43 l 1,50,-1
 389 -23 l 1,51,-1
 389 -8 l 1,52,-1
 282 -8 l 1,53,-1
 282 10 l 1,54,-1
 194 -18 l 1,0,-1
EndSplineSet
EndChar

StartChar: four
Encoding: 52 52 23
Width: 622
GlyphClass: 2
Flags: W
LayerCount: 2
Fore
SplineSet
146 748 m 1,0,-1
 341 748 l 1,1,-1
 253 465 l 1,2,-1
 284 465 l 1,3,-1
 250 343 l 1,4,-1
 340 340 l 1,5,-1
 340 371 l 1,6,-1
 393 371 l 1,7,-1
 393 372 l 1,8,-1
 408 372 l 1,9,-1
 408 541 l 1,10,-1
 426 541 l 1,11,-1
 395 637 l 1,12,-1
 377 637 l 1,13,-1
 377 748 l 1,14,-1
 571 748 l 1,15,-1
 561 465 l 1,16,-1
 592 465 l 1,17,-1
 592 293 l 1,18,-1
 539 293 l 1,19,-1
 549 197 l 1,20,-1
 571 197 l 1,21,-1
 561 96 l 1,22,-1
 582 96 l 1,23,-1
 582 0 l 1,24,-1
 387 0 l 1,25,-1
 387 186 l 1,26,-1
 264 186 l 1,27,-1
 264 205 l 1,28,-1
 168 174 l 1,29,-1
 168 156 l 1,30,-1
 57 156 l 1,31,-1
 57 258 l 1,32,-1
 27 275 l 1,33,-1
 12 275 l 1,34,-1
 59 372 l 1,35,-1
 74 372 l 1,36,-1
 120 541 l 1,37,-1
 138 541 l 1,38,-1
 134 637 l 1,39,-1
 116 637 l 1,40,-1
 146 748 l 1,0,-1
EndSplineSet
EndChar

StartChar: five
Encoding: 53 53 24
Width: 615
GlyphClass: 2
Flags: W
LayerCount: 2
Fore
SplineSet
573 776 m 1,0,-1
 573 582 l 1,1,-1
 291 592 l 1,2,-1
 291 561 l 1,3,-1
 239 561 l 1,4,-1
 238 535 l 1,5,-1
 238 530 l 1,6,-1
 237 516 l 1,7,-1
 267 516 l 1,8,-1
 267 508 l 1,9,-1
 313 508 l 1,10,-1
 313 496 l 1,11,-1
 331 496 l 1,12,-1
 410 520 l 1,13,-1
 559 382 l 1,14,-1
 559 205 l 1,15,-1
 541 205 l 1,16,-1
 571 109 l 1,17,-1
 441 -14 l 1,18,-1
 441 -2 l 1,19,-1
 395 -2 l 1,20,-1
 395 0 l 1,21,-1
 272 0 l 1,22,-1
 272 18 l 1,23,-1
 231 2 l 1,24,-1
 231 -2 l 1,25,-1
 218 -2 l 1,26,-1
 186 -12 l 1,27,-1
 186 -31 l 1,28,-1
 41 115 l 1,29,-1
 46 243 l 1,30,-1
 201 243 l 1,31,-1
 201 205 l 1,32,-1
 182 205 l 1,33,-1
 197 160 l 1,34,-1
 348 154 l 1,35,-1
 348 184 l 1,36,-1
 401 184 l 1,37,-1
 397 262 l 1,38,-1
 375 262 l 1,39,-1
 378 340 l 1,40,-1
 299 340 l 1,41,-1
 299 358 l 1,42,-1
 267 361 l 1,43,-1
 267 344 l 1,44,-1
 214 344 l 1,45,-1
 210 350 l 1,46,-1
 203 348 l 1,47,-1
 53 466 l 1,48,-1
 53 541 l 1,49,-1
 72 541 l 1,50,-1
 41 637 l 1,51,-1
 52 647 l 1,52,-1
 52 748 l 1,53,-1
 103 748 l 1,54,-1
 101 766 l 1,55,-1
 101 780 l 1,56,-1
 198 760 l 1,57,-1
 198 748 l 1,58,-1
 247 748 l 1,59,-1
 247 745 l 1,60,-1
 367 745 l 1,61,-1
 367 727 l 1,62,-1
 463 758 l 1,63,-1
 463 776 l 1,64,-1
 573 776 l 1,0,-1
422 338 m 1,65,-1
 422 340 l 1,66,-1
 421 340 l 1,67,-1
 422 338 l 1,65,-1
EndSplineSet
EndChar

StartChar: six
Encoding: 54 54 25
Width: 623
GlyphClass: 2
Flags: W
LayerCount: 2
Fore
SplineSet
573 228 m 1,0,-1
 577 197 l 1,1,-1
 599 166 l 1,2,-1
 415 0 l 1,3,-1
 415 2 l 1,4,-1
 292 2 l 1,5,-1
 292 20 l 1,6,-1
 241 4 l 1,7,-1
 241 0 l 1,8,-1
 227 0 l 1,9,-1
 196 -10 l 1,10,-1
 46 128 l 1,11,-1
 46 275 l 1,12,-1
 32 275 l 1,13,-1
 52 372 l 1,14,-1
 67 372 l 1,15,-1
 67 541 l 1,16,-1
 85 541 l 1,17,-1
 54 637 l 1,18,-1
 184 760 l 1,19,-1
 184 748 l 1,20,-1
 230 748 l 1,21,-1
 230 745 l 1,22,-1
 353 745 l 1,23,-1
 353 727 l 1,24,-1
 394 743 l 1,25,-1
 394 748 l 1,26,-1
 408 748 l 1,27,-1
 439 758 l 1,28,-1
 439 776 l 1,29,-1
 585 631 l 1,30,-1
 580 503 l 1,31,-1
 425 503 l 1,32,-1
 425 541 l 1,33,-1
 443 541 l 1,34,-1
 429 586 l 1,35,-1
 278 592 l 1,36,-1
 278 561 l 1,37,-1
 223 561 l 1,38,-1
 221 481 l 1,39,-1
 553 389 l 1,40,-1
 570 238 l 1,41,-1
 570 229 l 1,42,-1
 573 228 l 1,0,-1
251 367 m 1,43,-1
 251 293 l 1,44,-1
 198 293 l 1,45,-1
 208 197 l 1,46,-1
 230 197 l 1,47,-1
 226 161 l 1,48,-1
 368 156 l 1,49,-1
 368 186 l 1,50,-1
 415 186 l 1,51,-1
 415 258 l 1,52,-1
 251 367 l 1,43,-1
EndSplineSet
EndChar

StartChar: seven
Encoding: 55 55 26
Width: 522
GlyphClass: 2
Flags: W
LayerCount: 2
Fore
SplineSet
349 748 m 1,0,-1
 380 758 l 1,1,-1
 380 776 l 1,2,-1
 490 776 l 1,3,-1
 490 701 l 1,4,-1
 510 695 l 1,5,-1
 490 643 l 1,6,-1
 490 582 l 1,7,-1
 468 583 l 1,8,-1
 413 430 l 1,9,-1
 441 421 l 1,10,-1
 388 257 l 1,11,-1
 338 273 l 1,12,-1
 317 178 l 1,13,-1
 339 172 l 1,14,-1
 298 80 l 1,15,-1
 317 73 l 1,16,-1
 281 0 l 1,17,-1
 95 0 l 1,18,-1
 188 304 l 1,19,-1
 175 308 l 1,20,-1
 224 393 l 1,21,-1
 238 389 l 1,22,-1
 290 550 l 1,23,-1
 307 544 l 1,24,-1
 307 588 l 1,25,-1
 208 592 l 1,26,-1
 208 561 l 1,27,-1
 36 561 l 1,28,-1
 36 614 l 1,29,-1
 18 766 l 1,30,-1
 18 780 l 1,31,-1
 115 760 l 1,32,-1
 115 745 l 1,33,-1
 284 745 l 1,34,-1
 284 727 l 1,35,-1
 319 738 l 1,36,-1
 325 756 l 1,37,-1
 349 748 l 1,0,-1
EndSplineSet
EndChar

StartChar: eight
Encoding: 56 56 27
Width: 603
GlyphClass: 2
Flags: W
LayerCount: 2
Fore
SplineSet
419 287 m 1,0,-1
 419 289 l 1,1,-1
 418 289 l 1,2,-1
 419 287 l 1,0,-1
187 459 m 1,3,-1
 187 457 l 1,4,-1
 188 457 l 1,5,-1
 187 459 l 1,3,-1
375 289 m 1,6,-1
 296 289 l 1,7,-1
 296 307 l 1,8,-1
 249 311 l 1,9,-1
 252 258 l 1,10,-1
 179 205 l 1,11,-1
 194 160 l 1,12,-1
 345 154 l 1,13,-1
 345 184 l 1,14,-1
 398 184 l 1,15,-1
 394 262 l 1,16,-1
 372 262 l 1,17,-1
 375 289 l 1,6,-1
156 332 m 1,18,-1
 50 415 l 1,19,-1
 50 541 l 1,20,-1
 69 541 l 1,21,-1
 38 637 l 1,22,-1
 168 760 l 1,23,-1
 168 748 l 1,24,-1
 214 748 l 1,25,-1
 214 745 l 1,26,-1
 337 745 l 1,27,-1
 337 727 l 1,28,-1
 378 743 l 1,29,-1
 378 748 l 1,30,-1
 391 748 l 1,31,-1
 423 758 l 1,32,-1
 423 776 l 1,33,-1
 568 631 l 1,34,-1
 518 460 l 1,35,-1
 439 439 l 1,36,-1
 556 331 l 1,37,-1
 556 205 l 1,38,-1
 538 205 l 1,39,-1
 568 109 l 1,40,-1
 438 -14 l 1,41,-1
 438 -2 l 1,42,-1
 392 -2 l 1,43,-1
 392 0 l 1,44,-1
 269 0 l 1,45,-1
 269 18 l 1,46,-1
 228 2 l 1,47,-1
 228 -2 l 1,48,-1
 215 -2 l 1,49,-1
 183 -12 l 1,50,-1
 183 -31 l 1,51,-1
 38 115 l 1,52,-1
 76 294 l 1,53,-1
 156 332 l 1,18,-1
303 457 m 1,54,-1
 354 535 l 1,55,-1
 373 535 l 1,56,-1
 413 586 l 1,57,-1
 261 592 l 1,58,-1
 261 561 l 1,59,-1
 207 561 l 1,60,-1
 212 483 l 1,61,-1
 234 483 l 1,62,-1
 231 457 l 1,63,-1
 303 457 l 1,54,-1
EndSplineSet
EndChar

StartChar: nine
Encoding: 57 57 28
Width: 617
GlyphClass: 2
Flags: W
LayerCount: 2
Fore
SplineSet
53 538 m 1,0,-1
 50 569 l 1,1,-1
 28 600 l 1,2,-1
 212 766 l 1,3,-1
 212 764 l 1,4,-1
 335 764 l 1,5,-1
 335 745 l 1,6,-1
 386 762 l 1,7,-1
 386 766 l 1,8,-1
 399 766 l 1,9,-1
 431 776 l 1,10,-1
 581 638 l 1,11,-1
 581 490 l 1,12,-1
 595 490 l 1,13,-1
 574 394 l 1,14,-1
 560 394 l 1,15,-1
 560 225 l 1,16,-1
 542 225 l 1,17,-1
 572 129 l 1,18,-1
 442 6 l 1,19,-1
 442 18 l 1,20,-1
 396 18 l 1,21,-1
 396 20 l 1,22,-1
 273 20 l 1,23,-1
 273 39 l 1,24,-1
 232 23 l 1,25,-1
 232 18 l 1,26,-1
 219 18 l 1,27,-1
 187 8 l 1,28,-1
 187 -10 l 1,29,-1
 42 135 l 1,30,-1
 47 263 l 1,31,-1
 202 263 l 1,32,-1
 202 225 l 1,33,-1
 183 225 l 1,34,-1
 198 180 l 1,35,-1
 349 174 l 1,36,-1
 349 205 l 1,37,-1
 403 205 l 1,38,-1
 406 285 l 1,39,-1
 74 377 l 1,40,-1
 56 528 l 1,41,-1
 56 537 l 1,42,-1
 53 538 l 1,0,-1
376 399 m 1,43,-1
 376 473 l 1,44,-1
 429 473 l 1,45,-1
 419 569 l 1,46,-1
 396 569 l 1,47,-1
 400 605 l 1,48,-1
 259 610 l 1,49,-1
 259 580 l 1,50,-1
 212 580 l 1,51,-1
 212 508 l 1,52,-1
 376 399 l 1,43,-1
EndSplineSet
EndChar

StartChar: less
Encoding: 60 60 31
Width: 441
GlyphClass: 2
Flags: W
LayerCount: 2
Fore
SplineSet
396 397 m 1,0,-1
 358 384 l 1,1,-1
 362 354 l 1,2,-1
 256 293 l 1,3,-1
 248 324 l 1,4,-1
 189 291 l 1,5,-1
 191 280 l 1,6,-1
 396 184 l 1,7,-1
 396 25 l 1,8,-1
 331 58 l 1,9,-1
 325 29 l 1,10,-1
 220 103 l 1,11,-1
 231 155 l 1,12,-1
 171 175 l 1,13,-1
 166 154 l 1,14,-1
 108 196 l 1,15,-1
 103 176 l 1,16,-1
 44 206 l 1,17,-1
 44 401 l 1,18,-1
 214 477 l 1,19,-1
 212 492 l 1,20,-1
 274 495 l 1,21,-1
 276 480 l 1,22,-1
 382 551 l 1,23,-1
 385 534 l 1,24,-1
 396 545 l 1,25,-1
 396 397 l 1,0,-1
EndSplineSet
EndChar

StartChar: equal
Encoding: 61 61 32
Width: 541
GlyphClass: 2
Flags: W
LayerCount: 2
Fore
SplineSet
50 299 m 1,0,-1
 50 494 l 1,1,-1
 333 483 l 1,2,-1
 333 514 l 1,3,-1
 474 514 l 1,4,-1
 474 461 l 1,5,-1
 492 309 l 1,6,-1
 492 295 l 1,7,-1
 395 315 l 1,8,-1
 395 330 l 1,9,-1
 257 330 l 1,10,-1
 257 348 l 1,11,-1
 161 317 l 1,12,-1
 161 299 l 1,13,-1
 50 299 l 1,0,-1
50 33 m 1,14,-1
 50 227 l 1,15,-1
 333 217 l 1,16,-1
 333 248 l 1,17,-1
 474 248 l 1,18,-1
 474 195 l 1,19,-1
 492 43 l 1,20,-1
 492 29 l 1,21,-1
 395 49 l 1,22,-1
 395 63 l 1,23,-1
 257 63 l 1,24,-1
 257 82 l 1,25,-1
 161 51 l 1,26,-1
 161 33 l 1,27,-1
 50 33 l 1,14,-1
EndSplineSet
EndChar

StartChar: greater
Encoding: 62 62 33
Width: 441
GlyphClass: 2
Flags: W
LayerCount: 2
Fore
SplineSet
45 178 m 1,0,-1
 84 191 l 1,1,-1
 79 221 l 1,2,-1
 186 283 l 1,3,-1
 194 252 l 1,4,-1
 252 284 l 1,5,-1
 251 296 l 1,6,-1
 45 391 l 1,7,-1
 45 551 l 1,8,-1
 111 517 l 1,9,-1
 117 547 l 1,10,-1
 221 471 l 1,11,-1
 210 421 l 1,12,-1
 271 400 l 1,13,-1
 275 422 l 1,14,-1
 334 380 l 1,15,-1
 338 399 l 1,16,-1
 397 370 l 1,17,-1
 397 173 l 1,18,-1
 227 98 l 1,19,-1
 230 84 l 1,20,-1
 167 81 l 1,21,-1
 165 95 l 1,22,-1
 59 25 l 1,23,-1
 57 42 l 1,24,-1
 45 31 l 1,25,-1
 45 178 l 1,0,-1
EndSplineSet
EndChar

StartChar: question
Encoding: 63 63 34
Width: 640
GlyphClass: 2
Flags: W
LayerCount: 2
Fore
SplineSet
339 406 m 1,0,-1
 374 401 l 1,1,-1
 374 432 l 1,2,-1
 441 432 l 1,3,-1
 441 541 l 1,4,-1
 460 541 l 1,5,-1
 445 586 l 1,6,-1
 281 592 l 1,7,-1
 281 561 l 1,8,-1
 85 561 l 1,9,-1
 60 637 l 1,10,-1
 42 637 l 1,11,-1
 42 748 l 1,12,-1
 93 748 l 1,13,-1
 91 766 l 1,14,-1
 91 780 l 1,15,-1
 187 760 l 1,16,-1
 187 748 l 1,17,-1
 237 748 l 1,18,-1
 237 745 l 1,19,-1
 356 745 l 1,20,-1
 356 727 l 1,21,-1
 411 746 l 1,22,-1
 411 748 l 1,23,-1
 414 748 l 1,24,-1
 442 758 l 1,25,-1
 601 636 l 1,26,-1
 595 465 l 1,27,-1
 626 465 l 1,28,-1
 605 293 l 1,29,-1
 502 227 l 1,30,-1
 502 213 l 1,31,-1
 426 233 l 1,32,-1
 426 248 l 1,33,-1
 380 248 l 1,34,-1
 380 266 l 1,35,-1
 343 238 l 1,36,-1
 347 197 l 1,37,-1
 317 193 l 1,38,-1
 185 275 l 1,39,-1
 171 275 l 1,40,-1
 191 372 l 1,41,-1
 206 372 l 1,42,-1
 339 406 l 1,0,-1
201 3 m 1,43,-1
 201 41 l 1,44,-1
 169 41 l 1,45,-1
 173 137 l 1,46,-1
 225 137 l 1,47,-1
 225 157 l 1,48,-1
 374 153 l 1,49,-1
 388 124 l 1,50,-1
 370 124 l 1,51,-1
 370 20 l 1,52,-1
 321 20 l 1,53,-1
 321 0 l 1,54,-1
 201 3 l 1,43,-1
EndSplineSet
EndChar

StartChar: at
Encoding: 64 64 35
Width: 689
GlyphClass: 2
Flags: W
LayerCount: 2
Fore
SplineSet
394 371 m 1,0,-1
 278 375 l 1,1,-1
 278 344 l 1,2,-1
 230 344 l 1,3,-1
 230 184 l 1,4,-1
 212 184 l 1,5,-1
 226 139 l 1,6,-1
 371 133 l 1,7,-1
 371 164 l 1,8,-1
 422 164 l 1,9,-1
 425 311 l 1,10,-1
 394 311 l 1,11,-1
 394 371 l 1,0,-1
642 557 m 1,12,-1
 642 365 l 1,13,-1
 609 365 l 1,14,-1
 620 197 l 1,15,-1
 642 197 l 1,16,-1
 632 96 l 1,17,-1
 652 96 l 1,18,-1
 652 0 l 1,19,-1
 499 0 l 1,20,-1
 478 54 l 1,21,-1
 464 47 l 1,22,-1
 464 59 l 1,23,-1
 415 18 l 1,24,-1
 415 -31 l 1,25,-1
 295 -31 l 1,26,-1
 295 -12 l 1,27,-1
 241 -32 l 1,28,-1
 241 -33 l 1,29,-1
 238 -33 l 1,30,-1
 209 -43 l 1,31,-1
 50 120 l 1,32,-1
 56 311 l 1,33,-1
 26 311 l 1,34,-1
 46 483 l 1,35,-1
 150 549 l 1,36,-1
 150 563 l 1,37,-1
 225 543 l 1,38,-1
 225 528 l 1,39,-1
 353 528 l 1,40,-1
 353 510 l 1,41,-1
 450 465 l 1,42,-1
 478 476 l 1,43,-1
 478 541 l 1,44,-1
 497 541 l 1,45,-1
 642 557 l 1,12,-1
EndSplineSet
EndChar

StartChar: A
Encoding: 65 65 36
Width: 646
GlyphClass: 2
Flags: W
LayerCount: 2
Fore
SplineSet
111 228 m 1,0,-1
 190 567 l 1,1,-1
 208 561 l 1,2,-1
 209 663 l 1,3,-1
 191 668 l 1,4,-1
 226 748 l 1,5,-1
 450 748 l 1,6,-1
 509 488 l 1,7,-1
 539 496 l 1,8,-1
 580 329 l 1,9,-1
 527 316 l 1,10,-1
 560 225 l 1,11,-1
 595 97 l 1,12,-1
 614 90 l 1,13,-1
 645 -2 l 1,14,-1
 450 -2 l 1,15,-1
 422 111 l 1,16,-1
 420 111 l 1,17,-1
 420 117 l 1,18,-1
 419 125 l 1,19,-1
 251 125 l 1,20,-1
 251 143 l 1,21,-1
 245 139 l 1,22,-1
 226 97 l 1,23,-1
 246 90 l 1,24,-1
 215 -2 l 1,25,-1
 -11 -2 l 1,26,-1
 69 178 l 1,27,-1
 111 228 l 1,0,-1
353 478 m 1,28,-1
 343 446 l 1,29,-1
 321 478 l 1,30,-1
 266 314 l 1,31,-1
 267 291 l 1,32,-1
 265 282 l 1,33,-1
 327 309 l 1,34,-1
 369 309 l 1,35,-1
 368 358 l 1,36,-1
 381 361 l 1,37,-1
 353 478 l 1,28,-1
EndSplineSet
EndChar

StartChar: B
Encoding: 66 66 37
Width: 650
GlyphClass: 2
Flags: W
LayerCount: 2
Fore
SplineSet
259 446 m 1,0,-1
 376 442 l 1,1,-1
 376 473 l 1,2,-1
 413 473 l 1,3,-1
 413 541 l 1,4,-1
 431 541 l 1,5,-1
 417 586 l 1,6,-1
 283 592 l 1,7,-1
 283 561 l 1,8,-1
 231 561 l 1,9,-1
 228 506 l 1,10,-1
 259 506 l 1,11,-1
 259 446 l 1,0,-1
259 150 m 1,12,-1
 376 145 l 1,13,-1
 376 176 l 1,14,-1
 423 176 l 1,15,-1
 423 264 l 1,16,-1
 441 264 l 1,17,-1
 427 309 l 1,18,-1
 283 315 l 1,19,-1
 283 285 l 1,20,-1
 231 285 l 1,21,-1
 228 209 l 1,22,-1
 259 209 l 1,23,-1
 259 150 l 1,12,-1
212 -18 m 1,24,-1
 40 -11 l 1,25,-1
 54 78 l 1,26,-1
 54 275 l 1,27,-1
 40 275 l 1,28,-1
 60 372 l 1,29,-1
 75 372 l 1,30,-1
 75 541 l 1,31,-1
 93 541 l 1,32,-1
 62 637 l 1,33,-1
 44 637 l 1,34,-1
 44 748 l 1,35,-1
 95 748 l 1,36,-1
 93 766 l 1,37,-1
 93 780 l 1,38,-1
 189 760 l 1,39,-1
 189 748 l 1,40,-1
 239 748 l 1,41,-1
 239 745 l 1,42,-1
 358 745 l 1,43,-1
 358 727 l 1,44,-1
 444 758 l 1,45,-1
 572 636 l 1,46,-1
 566 506 l 1,47,-1
 597 506 l 1,48,-1
 577 426 l 1,49,-1
 530 384 l 1,50,-1
 603 329 l 1,51,-1
 597 209 l 1,52,-1
 628 209 l 1,53,-1
 607 37 l 1,54,-1
 504 -29 l 1,55,-1
 504 -43 l 1,56,-1
 428 -23 l 1,57,-1
 428 -8 l 1,58,-1
 300 -8 l 1,59,-1
 300 10 l 1,60,-1
 212 -18 l 1,24,-1
EndSplineSet
EndChar

StartChar: C
Encoding: 67 67 38
Width: 624
GlyphClass: 2
Flags: W
LayerCount: 2
Fore
SplineSet
582 228 m 1,0,-1
 585 197 l 1,1,-1
 607 166 l 1,2,-1
 423 0 l 1,3,-1
 423 2 l 1,4,-1
 280 2 l 1,5,-1
 280 20 l 1,6,-1
 228 4 l 1,7,-1
 228 0 l 1,8,-1
 215 0 l 1,9,-1
 183 -10 l 1,10,-1
 34 128 l 1,11,-1
 34 275 l 1,12,-1
 19 275 l 1,13,-1
 40 372 l 1,14,-1
 54 372 l 1,15,-1
 54 541 l 1,16,-1
 73 541 l 1,17,-1
 42 637 l 1,18,-1
 172 760 l 1,19,-1
 172 748 l 1,20,-1
 218 748 l 1,21,-1
 218 745 l 1,22,-1
 361 745 l 1,23,-1
 361 727 l 1,24,-1
 402 743 l 1,25,-1
 402 748 l 1,26,-1
 416 748 l 1,27,-1
 447 758 l 1,28,-1
 447 776 l 1,29,-1
 593 631 l 1,30,-1
 588 503 l 1,31,-1
 433 503 l 1,32,-1
 433 541 l 1,33,-1
 452 541 l 1,34,-1
 437 586 l 1,35,-1
 265 592 l 1,36,-1
 265 561 l 1,37,-1
 211 561 l 1,38,-1
 208 465 l 1,39,-1
 239 465 l 1,40,-1
 239 293 l 1,41,-1
 185 293 l 1,42,-1
 196 197 l 1,43,-1
 218 197 l 1,44,-1
 214 161 l 1,45,-1
 376 156 l 1,46,-1
 376 186 l 1,47,-1
 423 186 l 1,48,-1
 423 228 l 1,49,-1
 582 228 l 1,0,-1
EndSplineSet
EndChar

StartChar: D
Encoding: 68 68 39
Width: 683
GlyphClass: 2
Flags: W
LayerCount: 2
Fore
SplineSet
246 561 m 1,0,-1
 243 465 l 1,1,2
 243 465 243 465 273 465 c 1,3,-1
 273 293 l 1,4,5
 273 293 273 293 220 293 c 1,6,-1
 230 197 l 1,7,8
 230 197 230 197 253 197 c 1,9,-1
 249 161 l 1,10,-1
 408 156 l 1,11,-1
 408 186 l 1,12,-1
 455 186 l 1,13,-1
 455 275 l 1,14,-1
 440 275 l 1,15,-1
 461 372 l 1,16,-1
 475 372 l 1,17,-1
 475 541 l 1,18,-1
 494 541 l 1,19,-1
 479 586 l 1,20,-1
 297 592 l 1,21,-1
 297 561 l 1,22,-1
 246 561 l 1,0,-1
444 743 m 1,23,-1
 444 748 l 1,24,-1
 458 748 l 1,25,-1
 489 758 l 1,26,-1
 489 776 l 1,27,-1
 635 631 l 1,28,-1
 629 465 l 1,29,-1
 659 465 l 1,30,-1
 659 293 l 1,31,-1
 606 293 l 1,32,-1
 616 197 l 1,33,-1
 639 166 l 1,34,-1
 455 0 l 1,35,-1
 455 2 l 1,36,-1
 311 2 l 1,37,-1
 311 20 l 1,38,-1
 263 5 l 1,39,-1
 263 0 l 1,40,41
 263 0 263 0 247 0 c 1,42,-1
 215 -10 l 1,43,-1
 204 0 l 1,44,-1
 38 0 l 1,45,-1
 66 248 l 1,46,-1
 66 275 l 1,47,48
 66 275 66 275 51 275 c 1,49,-1
 72 372 l 1,50,51
 72 372 72 372 86 372 c 1,52,-1
 86 541 l 1,53,54
 86 541 86 541 104 541 c 1,55,-1
 74 637 l 1,56,-1
 38 637 l 1,57,-1
 38 748 l 1,58,-1
 190 748 l 1,59,-1
 204 760 l 1,60,-1
 204 748 l 1,61,62
 204 748 204 748 253 748 c 1,63,-1
 253 745 l 1,64,-1
 393 745 l 1,65,-1
 393 727 l 1,66,-1
 444 743 l 1,23,-1
EndSplineSet
EndChar

StartChar: E
Encoding: 69 69 40
Width: 616
GlyphClass: 2
Flags: W
LayerCount: 2
Fore
SplineSet
563 776 m 1,0,-1
 563 582 l 1,1,-1
 281 592 l 1,2,-1
 281 561 l 1,3,-1
 229 561 l 1,4,-1
 226 465 l 1,5,-1
 257 465 l 1,6,-1
 257 457 l 1,7,-1
 374 453 l 1,8,-1
 374 483 l 1,9,-1
 515 483 l 1,10,-1
 515 430 l 1,11,-1
 532 279 l 1,12,-1
 532 264 l 1,13,-1
 436 285 l 1,14,-1
 436 299 l 1,15,-1
 298 299 l 1,16,-1
 298 317 l 1,17,-1
 257 304 l 1,18,-1
 257 293 l 1,19,-1
 221 293 l 1,20,-1
 205 288 l 1,21,-1
 214 197 l 1,22,-1
 237 197 l 1,23,-1
 233 162 l 1,24,-1
 356 162 l 1,25,-1
 356 143 l 1,26,-1
 463 174 l 1,27,-1
 463 193 l 1,28,-1
 573 193 l 1,29,-1
 573 -2 l 1,30,-1
 281 8 l 1,31,-1
 281 -23 l 1,32,-1
 109 -23 l 1,33,-1
 109 0 l 1,34,-1
 52 0 l 1,35,-1
 52 275 l 1,36,-1
 38 275 l 1,37,-1
 58 372 l 1,38,-1
 73 372 l 1,39,-1
 73 541 l 1,40,-1
 91 541 l 1,41,-1
 60 637 l 1,42,-1
 42 637 l 1,43,-1
 42 748 l 1,44,-1
 93 748 l 1,45,-1
 91 766 l 1,46,-1
 91 780 l 1,47,-1
 187 760 l 1,48,-1
 187 748 l 1,49,-1
 237 748 l 1,50,-1
 237 745 l 1,51,-1
 356 745 l 1,52,-1
 356 727 l 1,53,-1
 453 758 l 1,54,-1
 453 776 l 1,55,-1
 563 776 l 1,0,-1
EndSplineSet
EndChar

StartChar: F
Encoding: 70 70 41
Width: 590
GlyphClass: 2
Flags: W
LayerCount: 2
Fore
SplineSet
553 776 m 1,0,-1
 553 582 l 1,1,-1
 281 592 l 1,2,-1
 281 561 l 1,3,-1
 229 561 l 1,4,-1
 226 465 l 1,5,-1
 257 465 l 1,6,-1
 257 457 l 1,7,-1
 374 453 l 1,8,-1
 374 483 l 1,9,-1
 505 483 l 1,10,-1
 505 430 l 1,11,-1
 522 279 l 1,12,-1
 522 264 l 1,13,-1
 426 285 l 1,14,-1
 426 299 l 1,15,-1
 298 299 l 1,16,-1
 298 317 l 1,17,-1
 257 304 l 1,18,-1
 257 293 l 1,19,-1
 221 293 l 1,20,-1
 205 288 l 1,21,-1
 214 197 l 1,22,-1
 237 197 l 1,23,-1
 226 96 l 1,24,-1
 247 96 l 1,25,-1
 247 0 l 1,26,-1
 52 0 l 1,27,-1
 52 275 l 1,28,-1
 38 275 l 1,29,-1
 58 372 l 1,30,-1
 73 372 l 1,31,-1
 73 541 l 1,32,-1
 91 541 l 1,33,-1
 60 637 l 1,34,-1
 42 637 l 1,35,-1
 42 748 l 1,36,-1
 93 748 l 1,37,-1
 91 766 l 1,38,-1
 91 780 l 1,39,-1
 187 760 l 1,40,-1
 187 748 l 1,41,-1
 237 748 l 1,42,-1
 237 745 l 1,43,-1
 356 745 l 1,44,-1
 356 727 l 1,45,-1
 442 758 l 1,46,-1
 442 776 l 1,47,-1
 553 776 l 1,0,-1
EndSplineSet
EndChar

StartChar: G
Encoding: 71 71 42
Width: 625
GlyphClass: 2
Flags: W
LayerCount: 2
Fore
SplineSet
582 228 m 1,0,-1
 585 197 l 1,1,-1
 607 166 l 1,2,-1
 423 0 l 1,3,-1
 423 2 l 1,4,-1
 280 2 l 1,5,-1
 280 20 l 1,6,-1
 228 4 l 1,7,-1
 228 0 l 1,8,-1
 215 0 l 1,9,-1
 183 -10 l 1,10,-1
 34 128 l 1,11,-1
 34 275 l 1,12,-1
 19 275 l 1,13,-1
 40 372 l 1,14,-1
 54 372 l 1,15,-1
 54 541 l 1,16,-1
 73 541 l 1,17,-1
 42 637 l 1,18,-1
 172 760 l 1,19,-1
 172 748 l 1,20,-1
 218 748 l 1,21,-1
 218 745 l 1,22,-1
 361 745 l 1,23,-1
 361 727 l 1,24,-1
 402 743 l 1,25,-1
 402 748 l 1,26,-1
 416 748 l 1,27,-1
 447 758 l 1,28,-1
 447 776 l 1,29,-1
 593 631 l 1,30,-1
 588 503 l 1,31,-1
 433 503 l 1,32,-1
 433 541 l 1,33,-1
 452 541 l 1,34,-1
 437 586 l 1,35,-1
 265 592 l 1,36,-1
 265 561 l 1,37,-1
 211 561 l 1,38,-1
 208 465 l 1,39,-1
 239 465 l 1,40,-1
 239 293 l 1,41,-1
 185 293 l 1,42,-1
 196 197 l 1,43,-1
 218 197 l 1,44,-1
 214 161 l 1,45,-1
 376 156 l 1,46,-1
 376 186 l 1,47,-1
 423 186 l 1,48,-1
 423 258 l 1,49,-1
 313 258 l 1,50,-1
 313 338 l 1,51,-1
 561 389 l 1,52,-1
 579 238 l 1,53,-1
 579 229 l 1,54,-1
 582 228 l 1,0,-1
EndSplineSet
EndChar

StartChar: H
Encoding: 72 72 43
Width: 662
GlyphClass: 2
Flags: W
LayerCount: 2
Fore
SplineSet
42 748 m 1,0,-1
 237 748 l 1,1,-1
 226 465 l 1,2,-1
 257 465 l 1,3,-1
 257 457 l 1,4,-1
 374 453 l 1,5,-1
 374 483 l 1,6,-1
 441 483 l 1,7,-1
 441 541 l 1,8,-1
 460 541 l 1,9,-1
 429 637 l 1,10,-1
 411 637 l 1,11,-1
 411 748 l 1,12,-1
 605 748 l 1,13,-1
 595 465 l 1,14,-1
 626 465 l 1,15,-1
 626 293 l 1,16,-1
 572 293 l 1,17,-1
 583 197 l 1,18,-1
 605 197 l 1,19,-1
 595 96 l 1,20,-1
 615 96 l 1,21,-1
 615 0 l 1,22,-1
 421 0 l 1,23,-1
 421 275 l 1,24,-1
 407 275 l 1,25,-1
 412 299 l 1,26,-1
 298 299 l 1,27,-1
 298 317 l 1,28,-1
 257 304 l 1,29,-1
 257 293 l 1,30,-1
 221 293 l 1,31,-1
 205 288 l 1,32,-1
 214 197 l 1,33,-1
 237 197 l 1,34,-1
 226 96 l 1,35,-1
 247 96 l 1,36,-1
 247 0 l 1,37,-1
 52 0 l 1,38,-1
 52 275 l 1,39,-1
 38 275 l 1,40,-1
 58 372 l 1,41,-1
 73 372 l 1,42,-1
 73 541 l 1,43,-1
 91 541 l 1,44,-1
 60 637 l 1,45,-1
 42 637 l 1,46,-1
 42 748 l 1,0,-1
EndSplineSet
EndChar

StartChar: I
Encoding: 73 73 44
Width: 293
GlyphClass: 2
Flags: W
LayerCount: 2
Fore
SplineSet
42 748 m 1,0,-1
 237 748 l 1,1,-1
 226 465 l 1,2,-1
 257 465 l 1,3,-1
 257 293 l 1,4,-1
 204 293 l 1,5,-1
 214 197 l 1,6,-1
 237 197 l 1,7,-1
 226 96 l 1,8,-1
 247 96 l 1,9,-1
 247 0 l 1,10,-1
 52 0 l 1,11,-1
 52 275 l 1,12,-1
 38 275 l 1,13,-1
 58 372 l 1,14,-1
 73 372 l 1,15,-1
 73 541 l 1,16,-1
 91 541 l 1,17,-1
 60 637 l 1,18,-1
 42 637 l 1,19,-1
 42 748 l 1,0,-1
EndSplineSet
EndChar

StartChar: J
Encoding: 74 74 45
Width: 601
GlyphClass: 2
Flags: W
LayerCount: 2
Fore
SplineSet
179 293 m 1,0,-1
 189 197 l 1,1,-1
 212 197 l 1,2,-1
 208 161 l 1,3,-1
 318 156 l 1,4,-1
 318 186 l 1,5,-1
 366 186 l 1,6,-1
 366 275 l 1,7,-1
 351 275 l 1,8,-1
 372 372 l 1,9,-1
 386 372 l 1,10,-1
 386 541 l 1,11,-1
 404 541 l 1,12,-1
 374 637 l 1,13,-1
 355 637 l 1,14,-1
 355 748 l 1,15,-1
 550 748 l 1,16,-1
 540 465 l 1,17,-1
 570 465 l 1,18,-1
 570 293 l 1,19,-1
 517 293 l 1,20,-1
 527 197 l 1,21,-1
 550 166 l 1,22,-1
 366 0 l 1,23,-1
 366 2 l 1,24,-1
 273 2 l 1,25,-1
 273 20 l 1,26,-1
 222 4 l 1,27,-1
 222 0 l 1,28,-1
 209 0 l 1,29,-1
 177 -10 l 1,30,-1
 28 128 l 1,31,-1
 28 275 l 1,32,-1
 13 275 l 1,33,-1
 34 372 l 1,34,-1
 179 293 l 1,0,-1
EndSplineSet
EndChar

StartChar: K
Encoding: 75 75 46
Width: 659
GlyphClass: 2
Flags: W
LayerCount: 2
Fore
SplineSet
42 748 m 1,0,-1
 237 748 l 1,1,-1
 223 414 l 1,2,-1
 375 608 l 1,3,-1
 390 598 l 1,4,-1
 422 693 l 1,5,-1
 407 705 l 1,6,-1
 442 748 l 1,7,-1
 641 748 l 1,8,-1
 456 457 l 1,9,-1
 480 439 l 1,10,-1
 384 354 l 1,11,-1
 484 286 l 1,12,-1
 440 253 l 1,13,-1
 505 183 l 1,14,-1
 523 198 l 1,15,-1
 572 112 l 1,16,-1
 589 125 l 1,17,-1
 644 0 l 1,18,-1
 428 0 l 1,19,-1
 327 145 l 1,20,-1
 314 137 l 1,21,-1
 276 225 l 1,22,-1
 288 234 l 1,23,-1
 281 245 l 1,24,-1
 234 233 l 1,25,-1
 215 211 l 1,26,-1
 214 197 l 1,27,-1
 237 197 l 1,28,-1
 231 150 l 1,29,-1
 256 146 l 1,30,-1
 227 106 l 1,31,-1
 226 96 l 1,32,-1
 247 96 l 1,33,-1
 247 0 l 1,34,-1
 52 0 l 1,35,-1
 52 175 l 1,36,-1
 42 182 l 1,37,-1
 52 196 l 1,38,-1
 52 275 l 1,39,-1
 38 275 l 1,40,-1
 58 372 l 1,41,-1
 73 372 l 1,42,-1
 73 541 l 1,43,-1
 91 541 l 1,44,-1
 60 637 l 1,45,-1
 42 637 l 1,46,-1
 42 748 l 1,0,-1
EndSplineSet
EndChar

StartChar: L
Encoding: 76 76 47
Width: 583
GlyphClass: 2
Flags: W
LayerCount: 2
Fore
SplineSet
42 748 m 1,0,-1
 237 748 l 1,1,-1
 226 465 l 1,2,-1
 257 465 l 1,3,-1
 257 293 l 1,4,-1
 204 293 l 1,5,-1
 214 197 l 1,6,-1
 237 197 l 1,7,-1
 233 162 l 1,8,-1
 356 162 l 1,9,-1
 356 143 l 1,10,-1
 442 174 l 1,11,-1
 442 193 l 1,12,-1
 553 193 l 1,13,-1
 553 -2 l 1,14,-1
 281 8 l 1,15,-1
 281 -23 l 1,16,-1
 109 -23 l 1,17,-1
 109 0 l 1,18,-1
 52 0 l 1,19,-1
 52 275 l 1,20,-1
 38 275 l 1,21,-1
 58 372 l 1,22,-1
 73 372 l 1,23,-1
 73 541 l 1,24,-1
 91 541 l 1,25,-1
 60 637 l 1,26,-1
 42 637 l 1,27,-1
 42 748 l 1,0,-1
EndSplineSet
EndChar

StartChar: M
Encoding: 77 77 48
Width: 908
GlyphClass: 2
Flags: W
LayerCount: 2
Fore
SplineSet
42 748 m 1,0,-1
 226 748 l 1,1,-1
 226 746 l 1,2,-1
 227 748 l 1,3,-1
 386 403 l 1,4,-1
 414 421 l 1,5,-1
 451 360 l 1,6,-1
 457 372 l 1,7,-1
 471 372 l 1,8,-1
 531 541 l 1,9,-1
 550 541 l 1,10,-1
 553 637 l 1,11,-1
 535 637 l 1,12,-1
 574 748 l 1,13,-1
 851 748 l 1,14,-1
 841 465 l 1,15,-1
 871 465 l 1,16,-1
 871 293 l 1,17,-1
 818 293 l 1,18,-1
 828 197 l 1,19,-1
 851 197 l 1,20,-1
 841 96 l 1,21,-1
 861 96 l 1,22,-1
 861 0 l 1,23,-1
 667 0 l 1,24,-1
 667 275 l 1,25,-1
 652 275 l 1,26,-1
 673 372 l 1,27,-1
 687 372 l 1,28,-1
 687 541 l 1,29,-1
 706 541 l 1,30,-1
 693 580 l 1,31,-1
 648 465 l 1,32,-1
 679 465 l 1,33,-1
 617 293 l 1,34,-1
 564 293 l 1,35,-1
 540 197 l 1,36,-1
 562 197 l 1,37,-1
 516 96 l 1,38,-1
 537 96 l 1,39,-1
 503 0 l 1,40,41
 503 0 503 0 318 0 c 1,42,-1
 331 33 l 1,43,-1
 279 233 l 1,44,-1
 291 242 l 1,45,-1
 204 383 l 1,46,-1
 220 392 l 1,47,-1
 175 433 l 1,48,-1
 175 293 l 1,49,-1
 194 293 l 1,50,-1
 204 197 l 1,51,-1
 226 197 l 1,52,-1
 216 96 l 1,53,-1
 237 96 l 1,54,-1
 237 0 l 1,55,-1
 52 0 l 1,56,-1
 52 275 l 1,57,-1
 38 275 l 1,58,-1
 58 372 l 1,59,-1
 73 372 l 1,60,-1
 73 541 l 1,61,-1
 91 541 l 1,62,-1
 60 637 l 1,63,-1
 42 637 l 1,64,-1
 42 748 l 1,0,-1
EndSplineSet
EndChar

StartChar: N
Encoding: 78 78 49
Width: 652
GlyphClass: 2
Flags: W
LayerCount: 2
Fore
SplineSet
411 748 m 1,0,-1
 595 748 l 1,1,-1
 585 465 l 1,2,-1
 615 465 l 1,3,-1
 615 293 l 1,4,-1
 562 293 l 1,5,-1
 572 197 l 1,6,-1
 595 197 l 1,7,-1
 585 96 l 1,8,-1
 605 96 l 1,9,-1
 605 0 l 1,10,-1
 421 0 l 1,11,-1
 335 233 l 1,12,-1
 346 242 l 1,13,-1
 247 378 l 1,14,-1
 247 293 l 1,15,-1
 194 293 l 1,16,-1
 204 197 l 1,17,-1
 226 197 l 1,18,-1
 216 96 l 1,19,-1
 237 96 l 1,20,-1
 237 0 l 1,21,-1
 52 0 l 1,22,-1
 52 275 l 1,23,-1
 38 275 l 1,24,-1
 58 372 l 1,25,-1
 73 372 l 1,26,-1
 73 541 l 1,27,-1
 91 541 l 1,28,-1
 60 637 l 1,29,-1
 42 637 l 1,30,-1
 42 748 l 1,31,-1
 226 748 l 1,32,-1
 424 403 l 1,33,-1
 441 416 l 1,34,-1
 441 541 l 1,35,-1
 460 541 l 1,36,-1
 429 637 l 1,37,-1
 411 637 l 1,38,-1
 411 748 l 1,0,-1
247 402 m 1,39,-1
 247 385 l 1,40,-1
 259 392 l 1,41,-1
 247 402 l 1,39,-1
EndSplineSet
EndChar

StartChar: O
Encoding: 79 79 50
Width: 651
GlyphClass: 2
Flags: W
LayerCount: 2
Fore
SplineSet
211 561 m 1,0,-1
 208 465 l 1,1,-1
 239 465 l 1,2,-1
 239 293 l 1,3,-1
 185 293 l 1,4,-1
 196 197 l 1,5,-1
 218 197 l 1,6,-1
 214 161 l 1,7,-1
 376 156 l 1,8,-1
 376 186 l 1,9,-1
 423 186 l 1,10,-1
 423 275 l 1,11,-1
 409 275 l 1,12,-1
 429 372 l 1,13,-1
 443 372 l 1,14,-1
 443 541 l 1,15,-1
 462 541 l 1,16,-1
 447 586 l 1,17,-1
 265 592 l 1,18,-1
 265 561 l 1,19,-1
 211 561 l 1,0,-1
413 743 m 1,20,-1
 413 748 l 1,21,-1
 426 748 l 1,22,-1
 458 758 l 1,23,-1
 458 776 l 1,24,-1
 603 631 l 1,25,-1
 597 465 l 1,26,-1
 628 465 l 1,27,-1
 628 293 l 1,28,-1
 574 293 l 1,29,-1
 585 197 l 1,30,-1
 607 166 l 1,31,-1
 423 0 l 1,32,-1
 423 2 l 1,33,-1
 280 2 l 1,34,-1
 280 20 l 1,35,-1
 228 4 l 1,36,-1
 228 0 l 1,37,-1
 215 0 l 1,38,-1
 183 -10 l 1,39,-1
 34 128 l 1,40,-1
 34 275 l 1,41,-1
 19 275 l 1,42,-1
 40 372 l 1,43,-1
 54 372 l 1,44,-1
 54 541 l 1,45,-1
 73 541 l 1,46,-1
 42 637 l 1,47,-1
 172 760 l 1,48,-1
 172 748 l 1,49,-1
 218 748 l 1,50,-1
 218 745 l 1,51,-1
 361 745 l 1,52,-1
 361 727 l 1,53,-1
 413 743 l 1,20,-1
EndSplineSet
EndChar

StartChar: P
Encoding: 80 80 51
Width: 640
GlyphClass: 2
Flags: W
LayerCount: 2
Fore
SplineSet
257 406 m 1,0,-1
 374 401 l 1,1,-1
 374 432 l 1,2,-1
 441 432 l 1,3,-1
 441 541 l 1,4,-1
 460 541 l 1,5,-1
 445 586 l 1,6,-1
 281 592 l 1,7,-1
 281 561 l 1,8,-1
 229 561 l 1,9,-1
 226 465 l 1,10,-1
 257 465 l 1,11,-1
 257 406 l 1,0,-1
210 238 m 1,12,-1
 214 197 l 1,13,-1
 237 197 l 1,14,-1
 226 96 l 1,15,-1
 247 96 l 1,16,-1
 247 0 l 1,17,-1
 52 0 l 1,18,-1
 52 275 l 1,19,-1
 38 275 l 1,20,-1
 58 372 l 1,21,-1
 73 372 l 1,22,-1
 73 541 l 1,23,-1
 91 541 l 1,24,-1
 60 637 l 1,25,-1
 42 637 l 1,26,-1
 42 748 l 1,27,-1
 93 748 l 1,28,-1
 91 766 l 1,29,-1
 91 780 l 1,30,-1
 187 760 l 1,31,-1
 187 748 l 1,32,-1
 237 748 l 1,33,-1
 237 745 l 1,34,-1
 356 745 l 1,35,-1
 356 727 l 1,36,-1
 411 746 l 1,37,-1
 411 748 l 1,38,-1
 414 748 l 1,39,-1
 442 758 l 1,40,-1
 601 636 l 1,41,-1
 595 465 l 1,42,-1
 626 465 l 1,43,-1
 605 293 l 1,44,-1
 502 227 l 1,45,-1
 502 213 l 1,46,-1
 426 233 l 1,47,-1
 426 248 l 1,48,-1
 298 248 l 1,49,-1
 298 266 l 1,50,-1
 210 238 l 1,12,-1
EndSplineSet
EndChar

StartChar: Q
Encoding: 81 81 52
Width: 653
GlyphClass: 2
Flags: W
LayerCount: 2
Fore
SplineSet
211 561 m 1,0,-1
 208 465 l 1,1,-1
 239 465 l 1,2,-1
 239 293 l 1,3,-1
 185 293 l 1,4,-1
 196 197 l 1,5,-1
 218 197 l 1,6,-1
 214 161 l 1,7,-1
 376 156 l 1,8,-1
 376 186 l 1,9,-1
 423 186 l 1,10,-1
 423 275 l 1,11,-1
 409 275 l 1,12,-1
 429 372 l 1,13,-1
 443 372 l 1,14,-1
 443 541 l 1,15,-1
 462 541 l 1,16,-1
 447 586 l 1,17,-1
 265 592 l 1,18,-1
 265 561 l 1,19,-1
 211 561 l 1,0,-1
413 743 m 1,20,-1
 413 748 l 1,21,-1
 426 748 l 1,22,-1
 458 758 l 1,23,-1
 458 776 l 1,24,-1
 603 631 l 1,25,-1
 597 465 l 1,26,-1
 628 465 l 1,27,-1
 628 293 l 1,28,-1
 574 293 l 1,29,-1
 585 197 l 1,30,-1
 607 166 l 1,31,-1
 503 72 l 1,32,-1
 564 19 l 1,33,-1
 581 33 l 1,34,-1
 636 -92 l 1,35,-1
 420 -92 l 1,36,-1
 354 2 l 1,37,-1
 280 2 l 1,38,-1
 280 20 l 1,39,-1
 228 4 l 1,40,-1
 228 0 l 1,41,-1
 215 0 l 1,42,-1
 183 -10 l 1,43,-1
 34 128 l 1,44,-1
 34 275 l 1,45,-1
 19 275 l 1,46,-1
 40 372 l 1,47,-1
 54 372 l 1,48,-1
 54 541 l 1,49,-1
 73 541 l 1,50,-1
 42 637 l 1,51,-1
 172 760 l 1,52,-1
 172 748 l 1,53,-1
 218 748 l 1,54,-1
 218 745 l 1,55,-1
 361 745 l 1,56,-1
 361 727 l 1,57,-1
 413 743 l 1,20,-1
EndSplineSet
EndChar

StartChar: R
Encoding: 82 82 53
Width: 653
GlyphClass: 2
Flags: W
LayerCount: 2
Fore
SplineSet
257 406 m 1,0,-1
 374 401 l 1,1,-1
 374 432 l 1,2,-1
 441 432 l 1,3,-1
 441 541 l 1,4,-1
 460 541 l 1,5,-1
 445 586 l 1,6,-1
 281 592 l 1,7,-1
 281 561 l 1,8,-1
 229 561 l 1,9,-1
 226 465 l 1,10,-1
 257 465 l 1,11,-1
 257 406 l 1,0,-1
210 289 m 1,12,-1
 214 197 l 1,13,-1
 237 197 l 1,14,-1
 226 96 l 1,15,-1
 247 96 l 1,16,-1
 247 0 l 1,17,-1
 52 0 l 1,18,-1
 52 275 l 1,19,-1
 38 275 l 1,20,-1
 58 372 l 1,21,-1
 73 372 l 1,22,-1
 73 541 l 1,23,-1
 91 541 l 1,24,-1
 60 637 l 1,25,-1
 42 637 l 1,26,-1
 42 748 l 1,27,-1
 93 748 l 1,28,-1
 91 766 l 1,29,-1
 91 780 l 1,30,-1
 187 760 l 1,31,-1
 187 748 l 1,32,-1
 237 748 l 1,33,-1
 237 745 l 1,34,-1
 356 745 l 1,35,-1
 356 727 l 1,36,-1
 411 746 l 1,37,-1
 411 748 l 1,38,-1
 414 748 l 1,39,-1
 442 758 l 1,40,-1
 601 636 l 1,41,-1
 595 465 l 1,42,-1
 626 465 l 1,43,-1
 605 344 l 1,44,-1
 502 279 l 1,45,-1
 502 264 l 1,46,-1
 469 273 l 1,47,-1
 441 253 l 1,48,-1
 506 183 l 1,49,-1
 524 198 l 1,50,-1
 573 112 l 1,51,-1
 590 125 l 1,52,-1
 645 0 l 1,53,-1
 429 0 l 1,54,-1
 328 145 l 1,55,-1
 315 137 l 1,56,-1
 278 225 l 1,57,-1
 289 234 l 1,58,-1
 242 299 l 1,59,-1
 210 289 l 1,12,-1
EndSplineSet
EndChar

StartChar: S
Encoding: 83 83 54
Width: 613
GlyphClass: 2
Flags: W
LayerCount: 2
Fore
SplineSet
432 287 m 1,0,-1
 432 289 l 1,1,-1
 431 289 l 1,2,-1
 432 287 l 1,0,-1
180 459 m 1,3,-1
 180 457 l 1,4,-1
 181 457 l 1,5,-1
 180 459 l 1,3,-1
388 289 m 1,6,-1
 289 289 l 1,7,-1
 289 307 l 1,8,-1
 238 311 l 1,9,-1
 238 307 l 1,10,-1
 224 307 l 1,11,-1
 193 297 l 1,12,-1
 43 415 l 1,13,-1
 43 541 l 1,14,-1
 61 541 l 1,15,-1
 31 637 l 1,16,-1
 161 760 l 1,17,-1
 161 748 l 1,18,-1
 207 748 l 1,19,-1
 207 745 l 1,20,-1
 350 745 l 1,21,-1
 350 727 l 1,22,-1
 391 743 l 1,23,-1
 391 748 l 1,24,-1
 404 748 l 1,25,-1
 436 758 l 1,26,-1
 436 776 l 1,27,-1
 582 631 l 1,28,-1
 577 503 l 1,29,-1
 422 503 l 1,30,-1
 422 541 l 1,31,-1
 440 541 l 1,32,-1
 426 586 l 1,33,-1
 254 592 l 1,34,-1
 254 561 l 1,35,-1
 200 561 l 1,36,-1
 205 483 l 1,37,-1
 227 483 l 1,38,-1
 224 457 l 1,39,-1
 324 457 l 1,40,-1
 324 444 l 1,41,-1
 341 443 l 1,42,-1
 420 469 l 1,43,-1
 569 331 l 1,44,-1
 569 205 l 1,45,-1
 551 205 l 1,46,-1
 582 109 l 1,47,-1
 452 -14 l 1,48,-1
 452 -2 l 1,49,-1
 406 -2 l 1,50,-1
 406 0 l 1,51,-1
 262 0 l 1,52,-1
 262 18 l 1,53,-1
 221 2 l 1,54,-1
 221 -2 l 1,55,-1
 208 -2 l 1,56,-1
 176 -12 l 1,57,-1
 176 -31 l 1,58,-1
 31 115 l 1,59,-1
 36 243 l 1,60,-1
 190 243 l 1,61,-1
 190 205 l 1,62,-1
 172 205 l 1,63,-1
 186 160 l 1,64,-1
 358 154 l 1,65,-1
 358 184 l 1,66,-1
 412 184 l 1,67,-1
 408 262 l 1,68,-1
 385 262 l 1,69,-1
 388 289 l 1,6,-1
EndSplineSet
EndChar

StartChar: T
Encoding: 84 84 55
Width: 540
GlyphClass: 2
Flags: W
LayerCount: 2
Fore
SplineSet
150 748 m 1,0,-1
 344 748 l 1,1,-1
 344 739 l 1,2,-1
 396 758 l 1,3,-1
 396 776 l 1,4,-1
 507 776 l 1,5,-1
 507 582 l 1,6,-1
 338 588 l 1,7,-1
 334 465 l 1,8,-1
 365 465 l 1,9,-1
 365 293 l 1,10,-1
 311 293 l 1,11,-1
 322 197 l 1,12,-1
 344 197 l 1,13,-1
 334 96 l 1,14,-1
 354 96 l 1,15,-1
 354 0 l 1,16,-1
 160 0 l 1,17,-1
 160 275 l 1,18,-1
 145 275 l 1,19,-1
 166 372 l 1,20,-1
 180 372 l 1,21,-1
 180 541 l 1,22,-1
 199 541 l 1,23,-1
 193 561 l 1,24,-1
 32 561 l 1,25,-1
 32 614 l 1,26,-1
 14 766 l 1,27,-1
 14 780 l 1,28,-1
 141 760 l 1,29,-1
 141 745 l 1,30,-1
 150 745 l 1,31,-1
 150 748 l 1,0,-1
EndSplineSet
EndChar

StartChar: U
Encoding: 85 85 56
Width: 652
GlyphClass: 2
Flags: W
LayerCount: 2
Fore
SplineSet
38 748 m 1,0,-1
 232 748 l 1,1,-1
 222 465 l 1,2,-1
 253 465 l 1,3,-1
 253 293 l 1,4,-1
 200 293 l 1,5,-1
 210 197 l 1,6,-1
 232 197 l 1,7,-1
 228 161 l 1,8,-1
 370 156 l 1,9,-1
 370 186 l 1,10,-1
 417 186 l 1,11,-1
 417 275 l 1,12,-1
 402 275 l 1,13,-1
 423 372 l 1,14,-1
 437 372 l 1,15,-1
 437 541 l 1,16,-1
 456 541 l 1,17,-1
 425 637 l 1,18,-1
 407 637 l 1,19,-1
 407 748 l 1,20,-1
 601 748 l 1,21,-1
 591 465 l 1,22,-1
 622 465 l 1,23,-1
 622 293 l 1,24,-1
 568 293 l 1,25,-1
 579 197 l 1,26,-1
 601 166 l 1,27,-1
 417 0 l 1,28,-1
 417 2 l 1,29,-1
 294 2 l 1,30,-1
 294 20 l 1,31,-1
 243 4 l 1,32,-1
 243 0 l 1,33,-1
 229 0 l 1,34,-1
 198 -10 l 1,35,-1
 48 128 l 1,36,-1
 48 275 l 1,37,-1
 34 275 l 1,38,-1
 54 372 l 1,39,-1
 69 372 l 1,40,-1
 69 541 l 1,41,-1
 87 541 l 1,42,-1
 56 637 l 1,43,-1
 38 637 l 1,44,-1
 38 748 l 1,0,-1
EndSplineSet
EndChar

StartChar: V
Encoding: 86 86 57
Width: 633
GlyphClass: 2
Flags: W
LayerCount: 2
Fore
SplineSet
7 748 m 1,0,-1
 197 748 l 1,1,-1
 255 488 l 1,2,-1
 285 496 l 1,3,-1
 326 329 l 1,4,-1
 274 316 l 1,5,-1
 307 225 l 1,6,-1
 318 228 l 1,7,-1
 397 567 l 1,8,-1
 415 561 l 1,9,-1
 417 663 l 1,10,-1
 399 668 l 1,11,-1
 434 748 l 1,12,-1
 618 748 l 1,13,-1
 519 446 l 1,14,-1
 549 437 l 1,15,-1
 495 273 l 1,16,-1
 443 291 l 1,17,-1
 423 196 l 1,18,-1
 444 188 l 1,19,-1
 402 97 l 1,20,-1
 422 90 l 1,21,-1
 392 -2 l 1,22,-1
 197 -2 l 1,23,-1
 131 263 l 1,24,-1
 117 260 l 1,25,-1
 114 358 l 1,26,-1
 128 361 l 1,27,-1
 88 526 l 1,28,-1
 105 530 l 1,29,-1
 53 616 l 1,30,-1
 36 612 l 1,31,-1
 7 748 l 1,0,-1
EndSplineSet
EndChar

StartChar: W
Encoding: 87 87 58
Width: 915
GlyphClass: 2
Flags: W
LayerCount: 2
Fore
SplineSet
8 748 m 1,0,-1
 198 748 l 1,1,-1
 256 488 l 1,2,-1
 286 496 l 1,3,-1
 316 329 l 1,4,-1
 265 316 l 1,5,-1
 288 225 l 1,6,-1
 299 228 l 1,7,-1
 388 567 l 1,8,-1
 547 559 l 1,9,-1
 563 488 l 1,10,-1
 593 496 l 1,11,-1
 634 329 l 1,12,-1
 583 316 l 1,13,-1
 636 225 l 1,14,-1
 647 228 l 1,15,-1
 695 567 l 1,16,-1
 713 561 l 1,17,-1
 694 663 l 1,18,-1
 677 668 l 1,19,-1
 712 748 l 1,20,-1
 896 748 l 1,21,-1
 817 446 l 1,22,-1
 847 437 l 1,23,-1
 803 273 l 1,24,-1
 752 291 l 1,25,-1
 752 196 l 1,26,-1
 773 188 l 1,27,-1
 731 97 l 1,28,-1
 751 90 l 1,29,-1
 721 -2 l 1,30,-1
 525 -2 l 1,31,-1
 439 263 l 1,32,-1
 428 261 l 1,33,-1
 403 196 l 1,34,-1
 425 188 l 1,35,-1
 383 97 l 1,36,-1
 402 90 l 1,37,-1
 373 -2 l 1,38,-1
 177 -2 l 1,39,-1
 122 263 l 1,40,-1
 108 260 l 1,41,-1
 104 358 l 1,42,-1
 119 361 l 1,43,-1
 89 526 l 1,44,-1
 106 530 l 1,45,-1
 54 616 l 1,46,-1
 37 612 l 1,47,-1
 8 748 l 1,0,-1
EndSplineSet
EndChar

StartChar: X
Encoding: 88 88 59
Width: 690
GlyphClass: 2
Flags: W
LayerCount: 2
Fore
SplineSet
483 748 m 1,0,-1
 671 748 l 1,1,-1
 496 457 l 1,2,-1
 519 439 l 1,3,-1
 469 365 l 1,4,-1
 523 286 l 1,5,-1
 482 253 l 1,6,-1
 542 183 l 1,7,-1
 559 198 l 1,8,-1
 606 112 l 1,9,-1
 622 125 l 1,10,-1
 673 0 l 1,11,-1
 450 0 l 1,12,-1
 375 145 l 1,13,-1
 364 137 l 1,14,-1
 336 220 l 1,15,-1
 286 139 l 1,16,-1
 271 150 l 1,17,-1
 242 54 l 1,18,-1
 256 43 l 1,19,-1
 222 0 l 1,20,-1
 15 0 l 1,21,-1
 189 291 l 1,22,-1
 166 308 l 1,23,-1
 217 383 l 1,24,-1
 162 462 l 1,25,-1
 204 495 l 1,26,-1
 143 564 l 1,27,-1
 126 550 l 1,28,-1
 80 636 l 1,29,-1
 63 623 l 1,30,-1
 12 748 l 1,31,-1
 215 748 l 1,32,-1
 310 602 l 1,33,-1
 322 610 l 1,34,-1
 358 524 l 1,35,-1
 421 608 l 1,36,-1
 434 598 l 1,37,-1
 464 693 l 1,38,-1
 450 705 l 1,39,-1
 483 748 l 1,0,-1
EndSplineSet
EndChar

StartChar: Y
Encoding: 89 89 60
Width: 660
GlyphClass: 2
Flags: W
LayerCount: 2
Fore
SplineSet
466 748 m 1,0,-1
 653 748 l 1,1,-1
 478 426 l 1,2,-1
 502 409 l 1,3,-1
 452 334 l 1,4,-1
 422 336 l 1,5,-1
 384 293 l 1,6,-1
 394 197 l 1,7,-1
 417 197 l 1,8,-1
 407 96 l 1,9,-1
 427 96 l 1,10,-1
 427 0 l 1,11,-1
 232 0 l 1,12,-1
 232 275 l 1,13,-1
 218 275 l 1,14,-1
 233 349 l 1,15,-1
 200 352 l 1,16,-1
 144 462 l 1,17,-1
 186 464 l 1,18,-1
 126 564 l 1,19,-1
 109 550 l 1,20,-1
 62 636 l 1,21,-1
 46 623 l 1,22,-1
 -5 748 l 1,23,-1
 198 748 l 1,24,-1
 293 602 l 1,25,-1
 304 610 l 1,26,-1
 341 494 l 1,27,-1
 403 608 l 1,28,-1
 417 598 l 1,29,-1
 446 693 l 1,30,-1
 432 705 l 1,31,-1
 466 748 l 1,0,-1
EndSplineSet
EndChar

StartChar: Z
Encoding: 90 90 61
Width: 585
GlyphClass: 2
Flags: W
LayerCount: 2
Fore
SplineSet
543 193 m 1,0,-1
 543 -2 l 1,1,-1
 250 8 l 1,2,-1
 250 -23 l 1,3,-1
 156 -23 l 1,4,-1
 154 -25 l 1,5,-1
 152 -23 l 1,6,-1
 78 -23 l 1,7,-1
 78 27 l 1,8,-1
 -7 85 l 1,9,-1
 60 185 l 1,10,-1
 60 197 l 1,11,-1
 68 196 l 1,12,-1
 147 313 l 1,13,-1
 135 321 l 1,14,-1
 206 389 l 1,15,-1
 218 381 l 1,16,-1
 312 521 l 1,17,-1
 328 511 l 1,18,-1
 350 588 l 1,19,-1
 250 592 l 1,20,-1
 250 561 l 1,21,-1
 78 561 l 1,22,-1
 78 614 l 1,23,-1
 60 766 l 1,24,-1
 60 780 l 1,25,-1
 157 760 l 1,26,-1
 157 745 l 1,27,-1
 326 745 l 1,28,-1
 326 727 l 1,29,-1
 422 758 l 1,30,-1
 422 776 l 1,31,-1
 532 776 l 1,32,-1
 532 622 l 1,33,-1
 564 601 l 1,34,-1
 397 373 l 1,35,-1
 423 355 l 1,36,-1
 327 213 l 1,37,-1
 283 243 l 1,38,-1
 240 162 l 1,39,-1
 326 162 l 1,40,-1
 326 143 l 1,41,-1
 432 174 l 1,42,-1
 432 193 l 1,43,-1
 543 193 l 1,0,-1
EndSplineSet
EndChar

StartChar: bracketleft
Encoding: 91 91 62
Width: 389
GlyphClass: 2
Flags: W
LayerCount: 2
Fore
SplineSet
343 -141 m 1,0,-1
 294 -141 l 1,1,-1
 294 -123 l 1,2,-1
 243 -139 l 1,3,-1
 243 -143 l 1,4,-1
 229 -143 l 1,5,-1
 198 -154 l 1,6,-1
 48 -159 l 1,7,-1
 48 194 l 1,8,-1
 34 194 l 1,9,-1
 54 372 l 1,10,-1
 69 372 l 1,11,-1
 69 592 l 1,12,-1
 87 592 l 1,13,-1
 56 811 l 1,14,-1
 186 811 l 1,15,-1
 186 799 l 1,16,-1
 232 799 l 1,17,-1
 232 797 l 1,18,-1
 343 797 l 1,19,-1
 343 641 l 1,20,-1
 280 643 l 1,21,-1
 280 664 l 1,22,-1
 225 664 l 1,23,-1
 222 465 l 1,24,-1
 253 465 l 1,25,-1
 253 211 l 1,26,-1
 200 211 l 1,27,-1
 179 53 l 1,28,-1
 202 53 l 1,29,-1
 198 17 l 1,30,-1
 343 13 l 1,31,-1
 343 -141 l 1,0,-1
EndSplineSet
EndChar

StartChar: backslash
Encoding: 92 92 63
Width: 518
GlyphClass: 2
Flags: W
LayerCount: 2
Fore
SplineSet
389 228 m 1,0,-1
 524 -2 l 1,1,-1
 329 -2 l 1,2,-1
 285 90 l 1,3,-1
 303 97 l 1,4,-1
 248 188 l 1,5,-1
 268 196 l 1,6,-1
 234 291 l 1,7,-1
 186 273 l 1,8,-1
 109 437 l 1,9,-1
 136 446 l 1,10,-1
 -6 748 l 1,11,-1
 178 748 l 1,12,-1
 225 668 l 1,13,-1
 208 663 l 1,14,-1
 224 561 l 1,15,-1
 241 567 l 1,16,-1
 389 228 l 1,0,-1
EndSplineSet
EndChar

StartChar: bracketright
Encoding: 93 93 64
Width: 389
GlyphClass: 2
Flags: W
LayerCount: 2
Fore
SplineSet
46 794 m 1,0,-1
 95 794 l 1,1,-1
 95 775 l 1,2,-1
 146 792 l 1,3,-1
 146 796 l 1,4,-1
 160 796 l 1,5,-1
 191 806 l 1,6,-1
 341 811 l 1,7,-1
 341 459 l 1,8,-1
 355 459 l 1,9,-1
 335 281 l 1,10,-1
 321 281 l 1,11,-1
 321 60 l 1,12,-1
 302 60 l 1,13,-1
 333 -159 l 1,14,-1
 203 -159 l 1,15,-1
 203 -146 l 1,16,-1
 157 -146 l 1,17,-1
 157 -144 l 1,18,-1
 46 -144 l 1,19,-1
 46 11 l 1,20,-1
 110 9 l 1,21,-1
 110 -11 l 1,22,-1
 164 -11 l 1,23,-1
 167 187 l 1,24,-1
 136 187 l 1,25,-1
 136 441 l 1,26,-1
 189 441 l 1,27,-1
 210 599 l 1,28,-1
 187 599 l 1,29,-1
 191 635 l 1,30,-1
 46 639 l 1,31,-1
 46 794 l 1,0,-1
EndSplineSet
EndChar

StartChar: asciicircum
Encoding: 94 94 65
Width: 606
GlyphClass: 2
Flags: W
LayerCount: 2
Fore
SplineSet
413 402 m 1,0,-1
 399 440 l 1,1,-1
 370 436 l 1,2,-1
 308 543 l 1,3,-1
 339 551 l 1,4,-1
 307 609 l 1,5,-1
 295 607 l 1,6,-1
 200 402 l 1,7,-1
 40 402 l 1,8,-1
 74 468 l 1,9,-1
 44 474 l 1,10,-1
 120 579 l 1,11,-1
 170 567 l 1,12,-1
 190 628 l 1,13,-1
 169 633 l 1,14,-1
 211 691 l 1,15,-1
 191 695 l 1,16,-1
 221 755 l 1,17,-1
 418 755 l 1,18,-1
 493 585 l 1,19,-1
 507 587 l 1,20,-1
 510 524 l 1,21,-1
 496 522 l 1,22,-1
 566 417 l 1,23,-1
 549 414 l 1,24,-1
 560 402 l 1,25,-1
 413 402 l 1,0,-1
EndSplineSet
EndChar

StartChar: underscore
Encoding: 95 95 66
Width: 541
GlyphClass: 2
Flags: W
LayerCount: 2
Fore
SplineSet
50 -193 m 1,0,-1
 50 2 l 1,1,-1
 333 -8 l 1,2,-1
 333 23 l 1,3,-1
 474 23 l 1,4,-1
 474 -31 l 1,5,-1
 492 -182 l 1,6,-1
 492 -197 l 1,7,-1
 395 -176 l 1,8,-1
 395 -162 l 1,9,-1
 257 -162 l 1,10,-1
 257 -143 l 1,11,-1
 161 -174 l 1,12,-1
 161 -193 l 1,13,-1
 50 -193 l 1,0,-1
EndSplineSet
EndChar

StartChar: grave
Encoding: 96 96 67
Width: 364
GlyphClass: 2
Flags: W
LayerCount: 2
Fore
SplineSet
217 402 m 1,0,-1
 203 440 l 1,1,-1
 173 436 l 1,2,-1
 112 543 l 1,3,-1
 14 691 l 1,4,-1
 -5 695 l 1,5,-1
 26 755 l 1,6,-1
 221 755 l 1,7,-1
 297 585 l 1,8,-1
 310 587 l 1,9,-1
 313 524 l 1,10,-1
 299 522 l 1,11,-1
 370 417 l 1,12,-1
 352 414 l 1,13,-1
 364 402 l 1,14,-1
 217 402 l 1,0,-1
EndSplineSet
EndChar

StartChar: a
Encoding: 97 97 68
Width: 689
GlyphClass: 2
Flags: W
LayerCount: 2
Fore
SplineSet
394 371 m 1,0,-1
 278 375 l 1,1,-1
 278 344 l 1,2,-1
 230 344 l 1,3,-1
 230 184 l 1,4,-1
 212 184 l 1,5,-1
 226 139 l 1,6,-1
 371 133 l 1,7,-1
 371 164 l 1,8,-1
 422 164 l 1,9,-1
 425 311 l 1,10,-1
 394 311 l 1,11,-1
 394 371 l 1,0,-1
642 557 m 1,12,-1
 642 365 l 1,13,-1
 609 365 l 1,14,-1
 620 197 l 1,15,-1
 642 197 l 1,16,-1
 632 96 l 1,17,-1
 652 96 l 1,18,-1
 652 0 l 1,19,-1
 499 0 l 1,20,-1
 478 54 l 1,21,-1
 464 47 l 1,22,-1
 464 59 l 1,23,-1
 415 18 l 1,24,-1
 415 -31 l 1,25,-1
 295 -31 l 1,26,-1
 295 -12 l 1,27,-1
 241 -32 l 1,28,-1
 241 -33 l 1,29,-1
 238 -33 l 1,30,-1
 209 -43 l 1,31,-1
 50 120 l 1,32,-1
 56 311 l 1,33,-1
 26 311 l 1,34,-1
 46 483 l 1,35,-1
 150 549 l 1,36,-1
 150 563 l 1,37,-1
 225 543 l 1,38,-1
 225 528 l 1,39,-1
 353 528 l 1,40,-1
 353 510 l 1,41,-1
 450 465 l 1,42,-1
 478 476 l 1,43,-1
 478 541 l 1,44,-1
 497 541 l 1,45,-1
 642 557 l 1,12,-1
EndSplineSet
EndChar

StartChar: b
Encoding: 98 98 69
Width: 650
GlyphClass: 2
Flags: W
LayerCount: 2
Fore
SplineSet
256 150 m 1,0,-1
 373 145 l 1,1,-1
 373 176 l 1,2,-1
 420 176 l 1,3,-1
 420 336 l 1,4,-1
 438 336 l 1,5,-1
 424 381 l 1,6,-1
 280 387 l 1,7,-1
 280 356 l 1,8,-1
 228 356 l 1,9,-1
 225 209 l 1,10,-1
 256 209 l 1,11,-1
 256 150 l 1,0,-1
39 768 m 1,12,-1
 233 768 l 1,13,-1
 223 578 l 1,14,-1
 254 578 l 1,15,-1
 254 551 l 1,16,-1
 355 551 l 1,17,-1
 355 532 l 1,18,-1
 410 552 l 1,19,-1
 410 553 l 1,20,-1
 413 553 l 1,21,-1
 441 563 l 1,22,-1
 600 400 l 1,23,-1
 594 209 l 1,24,-1
 625 209 l 1,25,-1
 604 37 l 1,26,-1
 501 -29 l 1,27,-1
 501 -43 l 1,28,-1
 425 -23 l 1,29,-1
 425 -8 l 1,30,-1
 297 -8 l 1,31,-1
 297 10 l 1,32,-1
 231 69 l 1,33,-1
 203 0 l 1,34,-1
 54 0 l 1,35,-1
 37 -11 l 1,36,-1
 49 65 l 1,37,-1
 49 275 l 1,38,-1
 35 275 l 1,39,-1
 55 372 l 1,40,-1
 70 372 l 1,41,-1
 70 561 l 1,42,-1
 88 561 l 1,43,-1
 57 657 l 1,44,-1
 39 657 l 1,45,-1
 39 768 l 1,12,-1
EndSplineSet
EndChar

StartChar: c
Encoding: 99 99 70
Width: 612
GlyphClass: 2
Flags: W
LayerCount: 2
Fore
SplineSet
411 346 m 1,0,-1
 398 391 l 1,1,-1
 301 391 l 1,2,-1
 301 410 l 1,3,-1
 242 390 l 1,4,-1
 242 293 l 1,5,-1
 188 293 l 1,6,-1
 199 186 l 1,7,-1
 221 186 l 1,8,-1
 217 151 l 1,9,-1
 358 145 l 1,10,-1
 358 176 l 1,11,-1
 406 176 l 1,12,-1
 406 209 l 1,13,-1
 566 209 l 1,14,-1
 567 197 l 1,15,-1
 590 104 l 1,16,-1
 406 -10 l 1,17,-1
 406 -8 l 1,18,-1
 283 -8 l 1,19,-1
 283 10 l 1,20,-1
 231 -6 l 1,21,-1
 231 -10 l 1,22,-1
 218 -10 l 1,23,-1
 186 -20 l 1,24,-1
 37 118 l 1,25,-1
 37 275 l 1,26,-1
 23 275 l 1,27,-1
 43 372 l 1,28,-1
 57 372 l 1,29,-1
 57 438 l 1,30,-1
 152 553 l 1,31,-1
 214 561 l 1,32,-1
 214 551 l 1,33,-1
 336 545 l 1,34,-1
 336 575 l 1,35,-1
 451 549 l 1,36,-1
 563 438 l 1,37,-1
 573 380 l 1,38,-1
 411 346 l 1,0,-1
EndSplineSet
EndChar

StartChar: d
Encoding: 100 100 71
Width: 701
GlyphClass: 2
Flags: W
LayerCount: 2
Fore
SplineSet
393 371 m 1,0,-1
 276 375 l 1,1,-1
 276 344 l 1,2,-1
 229 344 l 1,3,-1
 229 184 l 1,4,-1
 211 184 l 1,5,-1
 225 139 l 1,6,-1
 370 133 l 1,7,-1
 370 164 l 1,8,-1
 421 164 l 1,9,-1
 424 311 l 1,10,-1
 393 311 l 1,11,-1
 393 371 l 1,0,-1
446 748 m 1,12,-1
 641 748 l 1,13,-1
 631 465 l 1,14,-1
 662 465 l 1,15,-1
 662 293 l 1,16,-1
 608 293 l 1,17,-1
 618 197 l 1,18,-1
 641 197 l 1,19,-1
 631 96 l 1,20,-1
 651 96 l 1,21,-1
 651 0 l 1,22,-1
 457 0 l 1,23,-1
 457 54 l 1,24,-1
 414 18 l 1,25,-1
 414 -31 l 1,26,-1
 294 -31 l 1,27,-1
 294 -12 l 1,28,-1
 240 -32 l 1,29,-1
 240 -33 l 1,30,-1
 237 -33 l 1,31,-1
 208 -43 l 1,32,-1
 49 120 l 1,33,-1
 55 311 l 1,34,-1
 25 311 l 1,35,-1
 45 483 l 1,36,-1
 148 549 l 1,37,-1
 148 563 l 1,38,-1
 224 543 l 1,39,-1
 224 528 l 1,40,-1
 352 528 l 1,41,-1
 352 510 l 1,42,-1
 449 465 l 1,43,-1
 477 476 l 1,44,-1
 477 541 l 1,45,-1
 496 541 l 1,46,-1
 465 637 l 1,47,-1
 446 637 l 1,48,-1
 446 748 l 1,12,-1
EndSplineSet
EndChar

StartChar: e
Encoding: 101 101 72
Width: 612
GlyphClass: 2
Flags: W
LayerCount: 2
Fore
SplineSet
219 169 m 1,0,-1
 217 151 l 1,1,-1
 358 145 l 1,2,-1
 358 176 l 1,3,-1
 406 176 l 1,4,-1
 406 209 l 1,5,-1
 566 209 l 1,6,-1
 567 197 l 1,7,-1
 590 104 l 1,8,-1
 406 -10 l 1,9,-1
 406 -8 l 1,10,-1
 283 -8 l 1,11,-1
 283 10 l 1,12,-1
 231 -6 l 1,13,-1
 231 -10 l 1,14,-1
 218 -10 l 1,15,-1
 186 -20 l 1,16,-1
 37 118 l 1,17,-1
 37 275 l 1,18,-1
 23 275 l 1,19,-1
 43 372 l 1,20,-1
 57 372 l 1,21,-1
 57 438 l 1,22,-1
 152 553 l 1,23,-1
 214 561 l 1,24,-1
 214 551 l 1,25,-1
 336 545 l 1,26,-1
 336 575 l 1,27,-1
 451 549 l 1,28,-1
 563 438 l 1,29,-1
 573 380 l 1,30,-1
 539 329 l 1,31,-1
 544 321 l 1,32,-1
 472 301 l 1,33,-1
 467 309 l 1,34,-1
 354 256 l 1,35,-1
 348 266 l 1,36,-1
 295 218 l 1,37,-1
 302 208 l 1,38,-1
 219 169 l 1,0,-1
398 391 m 1,39,-1
 301 391 l 1,40,-1
 301 410 l 1,41,-1
 242 390 l 1,42,-1
 242 323 l 1,43,-1
 398 391 l 1,39,-1
EndSplineSet
EndChar

StartChar: f
Encoding: 102 102 73
Width: 514
GlyphClass: 2
Flags: W
LayerCount: 2
Fore
SplineSet
347 541 m 1,0,-1
 335 586 l 1,1,-1
 279 586 l 1,2,-1
 279 604 l 1,3,-1
 250 585 l 1,4,-1
 250 487 l 1,5,-1
 233 487 l 1,6,-1
 233 457 l 1,7,-1
 325 453 l 1,8,-1
 325 483 l 1,9,-1
 456 483 l 1,10,-1
 456 430 l 1,11,-1
 473 279 l 1,12,-1
 473 264 l 1,13,-1
 377 285 l 1,14,-1
 377 299 l 1,15,-1
 249 299 l 1,16,-1
 249 317 l 1,17,-1
 206 293 l 1,18,-1
 211 197 l 1,19,-1
 233 197 l 1,20,-1
 223 96 l 1,21,-1
 244 96 l 1,22,-1
 244 0 l 1,23,-1
 90 0 l 1,24,-1
 49 110 l 1,25,-1
 49 275 l 1,26,-1
 35 275 l 1,27,-1
 45 322 l 1,28,-1
 45 470 l 1,29,-1
 31 470 l 1,30,-1
 51 566 l 1,31,-1
 66 566 l 1,32,-1
 66 633 l 1,33,-1
 160 748 l 1,34,-1
 222 756 l 1,35,-1
 222 745 l 1,36,-1
 313 739 l 1,37,-1
 313 770 l 1,38,-1
 387 743 l 1,39,-1
 500 633 l 1,40,-1
 510 574 l 1,41,-1
 347 541 l 1,0,-1
EndSplineSet
EndChar

StartChar: g
Encoding: 103 103 74
Width: 688
GlyphClass: 2
Flags: W
LayerCount: 2
Fore
SplineSet
393 371 m 1,0,-1
 276 375 l 1,1,-1
 276 344 l 1,2,-1
 229 344 l 1,3,-1
 229 184 l 1,4,-1
 211 184 l 1,5,-1
 225 139 l 1,6,-1
 370 133 l 1,7,-1
 370 164 l 1,8,-1
 421 164 l 1,9,-1
 424 311 l 1,10,-1
 393 311 l 1,11,-1
 393 371 l 1,0,-1
641 557 m 1,12,-1
 641 365 l 1,13,-1
 608 365 l 1,14,-1
 618 197 l 1,15,-1
 641 197 l 1,16,-1
 631 96 l 1,17,-1
 651 96 l 1,18,-1
 651 0 l 1,19,-1
 620 0 l 1,20,-1
 625 -49 l 1,21,-1
 647 -80 l 1,22,-1
 463 -246 l 1,23,-1
 463 -244 l 1,24,-1
 371 -244 l 1,25,-1
 371 -225 l 1,26,-1
 370 -223 l 1,27,-1
 290 -223 l 1,28,-1
 290 -205 l 1,29,-1
 194 -236 l 1,30,-1
 194 -254 l 1,31,-1
 83 -254 l 1,32,-1
 83 -59 l 1,33,-1
 366 -70 l 1,34,-1
 370 -77 l 1,35,-1
 416 -59 l 1,36,-1
 463 -59 l 1,37,-1
 463 30 l 1,38,-1
 449 30 l 1,39,-1
 454 55 l 1,40,-1
 414 39 l 1,41,-1
 414 -10 l 1,42,-1
 294 -10 l 1,43,-1
 294 8 l 1,44,-1
 240 -11 l 1,45,-1
 240 -12 l 1,46,-1
 237 -12 l 1,47,-1
 208 -23 l 1,48,-1
 49 120 l 1,49,-1
 55 311 l 1,50,-1
 25 311 l 1,51,-1
 45 483 l 1,52,-1
 148 549 l 1,53,-1
 148 563 l 1,54,-1
 224 543 l 1,55,-1
 224 528 l 1,56,-1
 352 528 l 1,57,-1
 352 510 l 1,58,-1
 449 465 l 1,59,-1
 477 476 l 1,60,-1
 477 541 l 1,61,-1
 496 541 l 1,62,-1
 641 557 l 1,12,-1
EndSplineSet
EndChar

StartChar: h
Encoding: 104 104 75
Width: 652
GlyphClass: 2
Flags: W
LayerCount: 2
Fore
SplineSet
36 768 m 1,0,-1
 230 768 l 1,1,-1
 220 578 l 1,2,-1
 251 578 l 1,3,-1
 251 551 l 1,4,-1
 352 551 l 1,5,-1
 352 532 l 1,6,-1
 407 552 l 1,7,-1
 407 553 l 1,8,-1
 410 553 l 1,9,-1
 438 563 l 1,10,-1
 597 400 l 1,11,-1
 584 365 l 1,12,-1
 594 197 l 1,13,-1
 616 197 l 1,14,-1
 606 96 l 1,15,-1
 627 96 l 1,16,-1
 627 0 l 1,17,-1
 473 0 l 1,18,-1
 432 110 l 1,19,-1
 432 275 l 1,20,-1
 418 275 l 1,21,-1
 433 344 l 1,22,-1
 421 381 l 1,23,-1
 276 387 l 1,24,-1
 276 356 l 1,25,-1
 225 356 l 1,26,-1
 222 209 l 1,27,-1
 212 197 l 1,28,-1
 230 197 l 1,29,-1
 220 96 l 1,30,-1
 241 96 l 1,31,-1
 200 0 l 1,32,-1
 46 0 l 1,33,-1
 46 275 l 1,34,-1
 32 275 l 1,35,-1
 52 372 l 1,36,-1
 67 372 l 1,37,-1
 67 561 l 1,38,-1
 85 561 l 1,39,-1
 54 657 l 1,40,-1
 36 657 l 1,41,-1
 36 768 l 1,0,-1
EndSplineSet
EndChar

StartChar: i
Encoding: 105 105 76
Width: 276
GlyphClass: 2
Flags: W
LayerCount: 2
Fore
SplineSet
214 766 m 1,0,-1
 214 728 l 1,1,-1
 246 728 l 1,2,-1
 243 632 l 1,3,-1
 190 632 l 1,4,-1
 190 612 l 1,5,-1
 41 616 l 1,6,-1
 27 645 l 1,7,-1
 46 645 l 1,8,-1
 46 749 l 1,9,-1
 94 749 l 1,10,-1
 94 769 l 1,11,-1
 214 766 l 1,0,-1
226 557 m 1,12,-1
 226 365 l 1,13,-1
 194 365 l 1,14,-1
 204 197 l 1,15,-1
 226 197 l 1,16,-1
 216 96 l 1,17,-1
 237 96 l 1,18,-1
 237 0 l 1,19,-1
 83 0 l 1,20,-1
 42 110 l 1,21,-1
 42 275 l 1,22,-1
 28 275 l 1,23,-1
 48 372 l 1,24,-1
 62 372 l 1,25,-1
 62 541 l 1,26,-1
 81 541 l 1,27,-1
 226 557 l 1,12,-1
EndSplineSet
EndChar

StartChar: j
Encoding: 106 106 77
Width: 304
GlyphClass: 2
Flags: W
LayerCount: 2
Fore
SplineSet
240 766 m 1,0,-1
 240 728 l 1,1,-1
 271 728 l 1,2,-1
 268 632 l 1,3,-1
 216 632 l 1,4,-1
 216 612 l 1,5,-1
 67 616 l 1,6,-1
 52 645 l 1,7,-1
 72 645 l 1,8,-1
 72 749 l 1,9,-1
 120 749 l 1,10,-1
 120 769 l 1,11,-1
 240 766 l 1,0,-1
252 557 m 1,12,-1
 252 365 l 1,13,-1
 219 365 l 1,14,-1
 229 197 l 1,15,-1
 252 197 l 1,16,-1
 242 96 l 1,17,-1
 262 96 l 1,18,-1
 262 0 l 1,19,-1
 252 0 l 1,20,-1
 257 -49 l 1,21,-1
 280 -80 l 1,22,-1
 95 -246 l 1,23,-1
 95 -244 l 1,24,-1
 3 -244 l 1,25,-1
 3 -225 l 1,26,-1
 -34 -90 l 1,27,-1
 48 -59 l 1,28,-1
 95 -59 l 1,29,-1
 95 30 l 1,30,-1
 81 30 l 1,31,-1
 87 58 l 1,32,-1
 68 110 l 1,33,-1
 68 275 l 1,34,-1
 53 275 l 1,35,-1
 74 372 l 1,36,-1
 88 372 l 1,37,-1
 88 541 l 1,38,-1
 106 541 l 1,39,-1
 252 557 l 1,12,-1
EndSplineSet
EndChar

StartChar: k
Encoding: 107 107 78
Width: 592
GlyphClass: 2
Flags: W
LayerCount: 2
Fore
SplineSet
38 768 m 1,0,-1
 232 768 l 1,1,-1
 216 343 l 1,2,-1
 226 342 l 1,3,-1
 371 526 l 1,4,-1
 386 516 l 1,5,-1
 397 549 l 1,6,-1
 563 549 l 1,7,-1
 452 375 l 1,8,-1
 476 357 l 1,9,-1
 357 296 l 1,10,-1
 480 204 l 1,11,-1
 436 171 l 1,12,-1
 501 101 l 1,13,-1
 519 116 l 1,14,-1
 568 30 l 1,15,-1
 585 43 l 1,16,-1
 604 0 l 1,17,-1
 367 0 l 1,18,-1
 323 63 l 1,19,-1
 310 55 l 1,20,-1
 272 143 l 1,21,-1
 284 153 l 1,22,-1
 276 163 l 1,23,-1
 230 152 l 1,24,-1
 227 147 l 1,25,-1
 222 96 l 1,26,-1
 243 96 l 1,27,-1
 243 66 l 1,28,-1
 252 65 l 1,29,-1
 243 51 l 1,30,-1
 243 0 l 1,31,-1
 206 0 l 1,32,-1
 196 -13 l 1,33,-1
 176 0 l 1,34,-1
 48 0 l 1,35,-1
 48 93 l 1,36,-1
 38 100 l 1,37,-1
 48 114 l 1,38,-1
 48 275 l 1,39,-1
 34 275 l 1,40,-1
 54 372 l 1,41,-1
 69 372 l 1,42,-1
 69 541 l 1,43,-1
 87 541 l 1,44,-1
 56 637 l 1,45,-1
 38 637 l 1,46,-1
 38 768 l 1,0,-1
EndSplineSet
EndChar

StartChar: l
Encoding: 108 108 79
Width: 292
GlyphClass: 2
Flags: W
LayerCount: 2
Fore
SplineSet
37 768 m 1,0,-1
 231 768 l 1,1,-1
 221 465 l 1,2,-1
 252 465 l 1,3,-1
 252 293 l 1,4,-1
 199 293 l 1,5,-1
 209 197 l 1,6,-1
 231 197 l 1,7,-1
 221 96 l 1,8,-1
 242 96 l 1,9,-1
 242 0 l 1,10,-1
 47 0 l 1,11,-1
 47 275 l 1,12,-1
 33 275 l 1,13,-1
 53 372 l 1,14,-1
 68 372 l 1,15,-1
 68 541 l 1,16,-1
 86 541 l 1,17,-1
 55 637 l 1,18,-1
 37 637 l 1,19,-1
 37 768 l 1,0,-1
EndSplineSet
EndChar

StartChar: m
Encoding: 109 109 80
Width: 988
GlyphClass: 2
Flags: W
LayerCount: 2
Fore
SplineSet
397 344 m 1,0,-1
 386 381 l 1,1,-1
 283 387 l 1,2,-1
 283 356 l 1,3,-1
 231 356 l 1,4,-1
 228 209 l 1,5,-1
 218 197 l 1,6,-1
 233 197 l 1,7,-1
 223 96 l 1,8,-1
 244 96 l 1,9,-1
 244 0 l 1,10,-1
 39 0 l 1,11,-1
 49 110 l 1,12,-1
 49 275 l 1,13,-1
 35 275 l 1,14,-1
 55 372 l 1,15,-1
 70 372 l 1,16,-1
 70 541 l 1,17,-1
 88 541 l 1,18,-1
 233 557 l 1,19,-1
 233 549 l 1,20,-1
 239 553 l 1,21,-1
 239 551 l 1,22,-1
 317 551 l 1,23,-1
 317 532 l 1,24,-1
 372 552 l 1,25,-1
 372 553 l 1,26,-1
 375 553 l 1,27,-1
 403 563 l 1,28,-1
 481 483 l 1,29,-1
 558 524 l 1,30,-1
 558 512 l 1,31,-1
 607 553 l 1,32,-1
 607 551 l 1,33,-1
 686 551 l 1,34,-1
 686 532 l 1,35,-1
 740 552 l 1,36,-1
 740 553 l 1,37,-1
 743 553 l 1,38,-1
 772 563 l 1,39,-1
 931 400 l 1,40,-1
 918 365 l 1,41,-1
 928 197 l 1,42,-1
 950 197 l 1,43,-1
 940 96 l 1,44,-1
 961 96 l 1,45,-1
 961 0 l 1,46,-1
 807 0 l 1,47,-1
 766 110 l 1,48,-1
 766 275 l 1,49,-1
 752 275 l 1,50,-1
 766 344 l 1,51,-1
 755 381 l 1,52,-1
 651 387 l 1,53,-1
 651 356 l 1,54,-1
 600 356 l 1,55,-1
 597 209 l 1,56,-1
 581 189 l 1,57,-1
 571 96 l 1,58,-1
 592 96 l 1,59,-1
 592 0 l 1,60,-1
 438 0 l 1,61,-1
 397 110 l 1,62,-1
 397 275 l 1,63,-1
 383 275 l 1,64,-1
 397 344 l 1,0,-1
EndSplineSet
EndChar

StartChar: n
Encoding: 110 110 81
Width: 660
GlyphClass: 2
Flags: W
LayerCount: 2
Fore
SplineSet
438 344 m 1,0,-1
 427 381 l 1,1,-1
 283 387 l 1,2,-1
 283 356 l 1,3,-1
 231 356 l 1,4,-1
 228 209 l 1,5,-1
 218 197 l 1,6,-1
 233 197 l 1,7,-1
 223 96 l 1,8,-1
 244 96 l 1,9,-1
 244 0 l 1,10,-1
 39 0 l 1,11,-1
 49 110 l 1,12,-1
 49 275 l 1,13,-1
 35 275 l 1,14,-1
 55 372 l 1,15,-1
 70 372 l 1,16,-1
 70 541 l 1,17,-1
 88 541 l 1,18,-1
 233 557 l 1,19,-1
 233 549 l 1,20,-1
 239 553 l 1,21,-1
 239 551 l 1,22,-1
 358 551 l 1,23,-1
 358 532 l 1,24,-1
 413 552 l 1,25,-1
 413 553 l 1,26,-1
 416 553 l 1,27,-1
 444 563 l 1,28,-1
 603 400 l 1,29,-1
 590 365 l 1,30,-1
 600 197 l 1,31,-1
 623 197 l 1,32,-1
 612 96 l 1,33,-1
 633 96 l 1,34,-1
 633 0 l 1,35,-1
 479 0 l 1,36,-1
 438 110 l 1,37,-1
 438 275 l 1,38,-1
 424 275 l 1,39,-1
 438 344 l 1,0,-1
EndSplineSet
EndChar

StartChar: o
Encoding: 111 111 82
Width: 637
GlyphClass: 2
Flags: W
LayerCount: 2
Fore
SplineSet
584 438 m 1,0,-1
 610 293 l 1,1,-1
 557 293 l 1,2,-1
 567 197 l 1,3,-1
 590 166 l 1,4,-1
 406 -10 l 1,5,-1
 406 -8 l 1,6,-1
 283 -8 l 1,7,-1
 283 10 l 1,8,-1
 231 -6 l 1,9,-1
 231 -10 l 1,10,-1
 218 -10 l 1,11,-1
 186 -20 l 1,12,-1
 37 118 l 1,13,-1
 37 275 l 1,14,-1
 23 275 l 1,15,-1
 43 372 l 1,16,-1
 57 372 l 1,17,-1
 57 438 l 1,18,-1
 152 553 l 1,19,-1
 214 561 l 1,20,-1
 214 551 l 1,21,-1
 356 545 l 1,22,-1
 356 575 l 1,23,-1
 471 549 l 1,24,-1
 584 438 l 1,0,-1
242 390 m 1,25,-1
 242 293 l 1,26,-1
 188 293 l 1,27,-1
 199 186 l 1,28,-1
 221 186 l 1,29,-1
 217 151 l 1,30,-1
 358 145 l 1,31,-1
 358 176 l 1,32,-1
 406 176 l 1,33,-1
 406 275 l 1,34,-1
 391 275 l 1,35,-1
 412 372 l 1,36,-1
 426 372 l 1,37,-1
 426 376 l 1,38,-1
 419 377 l 1,39,-1
 419 391 l 1,40,-1
 301 391 l 1,41,-1
 301 410 l 1,42,-1
 242 390 l 1,25,-1
EndSplineSet
EndChar

StartChar: p
Encoding: 112 112 83
Width: 652
GlyphClass: 2
Flags: W
LayerCount: 2
Fore
SplineSet
257 150 m 1,0,-1
 374 145 l 1,1,-1
 374 176 l 1,2,-1
 421 176 l 1,3,-1
 421 336 l 1,4,-1
 439 336 l 1,5,-1
 425 381 l 1,6,-1
 281 387 l 1,7,-1
 281 356 l 1,8,-1
 255 356 l 1,9,-1
 255 209 l 1,10,-1
 257 209 l 1,11,-1
 257 150 l 1,0,-1
205 93 m 1,12,-1
 212 -23 l 1,13,-1
 234 -23 l 1,14,-1
 224 -123 l 1,15,-1
 245 -123 l 1,16,-1
 204 -219 l 1,17,-1
 50 -219 l 1,18,-1
 50 56 l 1,19,-1
 36 56 l 1,20,-1
 56 153 l 1,21,-1
 71 153 l 1,22,-1
 71 342 l 1,23,-1
 89 342 l 1,24,-1
 58 438 l 1,25,-1
 40 438 l 1,26,-1
 40 549 l 1,27,-1
 231 549 l 1,28,-1
 237 553 l 1,29,-1
 237 551 l 1,30,-1
 356 551 l 1,31,-1
 356 532 l 1,32,-1
 411 552 l 1,33,-1
 411 553 l 1,34,-1
 414 553 l 1,35,-1
 442 563 l 1,36,-1
 601 400 l 1,37,-1
 595 209 l 1,38,-1
 626 209 l 1,39,-1
 605 37 l 1,40,-1
 502 -29 l 1,41,-1
 502 -43 l 1,42,-1
 426 -23 l 1,43,-1
 426 -8 l 1,44,-1
 298 -8 l 1,45,-1
 298 10 l 1,46,-1
 205 93 l 1,12,-1
EndSplineSet
EndChar

StartChar: q
Encoding: 113 113 84
Width: 700
GlyphClass: 2
Flags: W
LayerCount: 2
Fore
SplineSet
393 371 m 1,0,-1
 276 375 l 1,1,-1
 276 344 l 1,2,-1
 229 344 l 1,3,-1
 229 184 l 1,4,-1
 211 184 l 1,5,-1
 225 139 l 1,6,-1
 370 133 l 1,7,-1
 370 164 l 1,8,-1
 421 164 l 1,9,-1
 424 311 l 1,10,-1
 393 311 l 1,11,-1
 393 371 l 1,0,-1
446 549 m 1,12,-1
 641 549 l 1,13,-1
 631 266 l 1,14,-1
 662 266 l 1,15,-1
 662 94 l 1,16,-1
 608 94 l 1,17,-1
 618 -2 l 1,18,-1
 641 -2 l 1,19,-1
 631 -102 l 1,20,-1
 651 -102 l 1,21,-1
 651 -199 l 1,22,-1
 457 -199 l 1,23,-1
 457 54 l 1,24,-1
 414 18 l 1,25,-1
 414 -31 l 1,26,-1
 294 -31 l 1,27,-1
 294 -12 l 1,28,-1
 240 -32 l 1,29,-1
 240 -33 l 1,30,-1
 237 -33 l 1,31,-1
 208 -43 l 1,32,-1
 49 120 l 1,33,-1
 55 311 l 1,34,-1
 25 311 l 1,35,-1
 45 483 l 1,36,-1
 148 549 l 1,37,-1
 148 563 l 1,38,-1
 224 543 l 1,39,-1
 224 528 l 1,40,-1
 352 528 l 1,41,-1
 352 510 l 1,42,-1
 446 466 l 1,43,-1
 446 549 l 1,12,-1
EndSplineSet
EndChar

StartChar: r
Encoding: 114 114 85
Width: 601
GlyphClass: 2
Flags: W
LayerCount: 2
Fore
SplineSet
218 197 m 1,0,-1
 233 197 l 1,1,-1
 223 96 l 1,2,-1
 244 96 l 1,3,-1
 244 0 l 1,4,-1
 39 0 l 1,5,-1
 49 110 l 1,6,-1
 49 275 l 1,7,-1
 35 275 l 1,8,-1
 55 372 l 1,9,-1
 70 372 l 1,10,-1
 70 541 l 1,11,-1
 88 541 l 1,12,-1
 233 557 l 1,13,-1
 233 549 l 1,14,-1
 239 553 l 1,15,-1
 239 551 l 1,16,-1
 358 551 l 1,17,-1
 358 532 l 1,18,-1
 413 552 l 1,19,-1
 413 553 l 1,20,-1
 416 553 l 1,21,-1
 444 563 l 1,22,-1
 603 400 l 1,23,-1
 441 336 l 1,24,-1
 427 381 l 1,25,-1
 283 387 l 1,26,-1
 283 356 l 1,27,-1
 231 356 l 1,28,-1
 228 209 l 1,29,-1
 218 197 l 1,0,-1
EndSplineSet
EndChar

StartChar: s
Encoding: 115 115 86
Width: 590
GlyphClass: 2
Flags: W
LayerCount: 2
Fore
SplineSet
431 366 m 1,0,-1
 391 391 l 1,1,-1
 294 391 l 1,2,-1
 294 410 l 1,3,-1
 234 390 l 1,4,-1
 191 371 l 1,5,-1
 214 371 l 1,6,-1
 212 317 l 1,7,-1
 321 317 l 1,8,-1
 321 299 l 1,9,-1
 372 315 l 1,10,-1
 372 319 l 1,11,-1
 385 319 l 1,12,-1
 417 330 l 1,13,-1
 566 232 l 1,14,-1
 560 163 l 1,15,-1
 546 163 l 1,16,-1
 546 96 l 1,17,-1
 452 -18 l 1,18,-1
 389 -27 l 1,19,-1
 389 -16 l 1,20,-1
 267 -10 l 1,21,-1
 267 -41 l 1,22,-1
 153 -14 l 1,23,-1
 40 96 l 1,24,-1
 30 155 l 1,25,-1
 131 172 l 1,26,-1
 205 143 l 1,27,-1
 302 143 l 1,28,-1
 302 125 l 1,29,-1
 361 144 l 1,30,-1
 404 164 l 1,31,-1
 382 164 l 1,32,-1
 383 176 l 1,33,-1
 275 176 l 1,34,-1
 275 195 l 1,35,-1
 224 219 l 1,36,-1
 224 215 l 1,37,-1
 211 215 l 1,38,-1
 179 205 l 1,39,-1
 30 302 l 1,40,-1
 36 372 l 1,41,-1
 50 372 l 1,42,-1
 50 438 l 1,43,-1
 144 553 l 1,44,-1
 207 561 l 1,45,-1
 207 551 l 1,46,-1
 329 545 l 1,47,-1
 329 575 l 1,48,-1
 443 549 l 1,49,-1
 546 438 l 1,50,-1
 556 380 l 1,51,-1
 431 366 l 1,0,-1
397 176 m 1,52,-1
 398 174 l 1,53,-1
 398 176 l 1,54,-1
 397 176 l 1,52,-1
EndSplineSet
EndChar

StartChar: t
Encoding: 116 116 87
Width: 443
GlyphClass: 2
Flags: W
LayerCount: 2
Fore
SplineSet
241 244 m 1,0,-1
 241 184 l 1,1,-1
 222 184 l 1,2,-1
 237 139 l 1,3,-1
 381 133 l 1,4,-1
 425 18 l 1,5,-1
 425 -31 l 1,6,-1
 305 -31 l 1,7,-1
 305 -12 l 1,8,-1
 251 -32 l 1,9,-1
 251 -33 l 1,10,-1
 248 -33 l 1,11,-1
 219 -43 l 1,12,-1
 60 120 l 1,13,-1
 63 226 l 1,14,-1
 52 225 l 1,15,-1
 52 275 l 1,16,-1
 38 275 l 1,17,-1
 58 372 l 1,18,-1
 73 372 l 1,19,-1
 73 432 l 1,20,-1
 25 432 l 1,21,-1
 25 555 l 1,22,-1
 103 552 l 1,23,-1
 76 637 l 1,24,-1
 57 637 l 1,25,-1
 57 748 l 1,26,-1
 252 748 l 1,27,-1
 245 546 l 1,28,-1
 276 545 l 1,29,-1
 276 575 l 1,30,-1
 377 575 l 1,31,-1
 377 522 l 1,32,-1
 394 371 l 1,33,-1
 394 356 l 1,34,-1
 298 377 l 1,35,-1
 298 391 l 1,36,-1
 272 391 l 1,37,-1
 272 293 l 1,38,-1
 219 293 l 1,39,-1
 224 243 l 1,40,-1
 241 244 l 1,0,-1
EndSplineSet
EndChar

StartChar: u
Encoding: 117 117 88
Width: 683
GlyphClass: 2
Flags: W
LayerCount: 2
Fore
SplineSet
224 244 m 1,0,-1
 224 184 l 1,1,-1
 206 184 l 1,2,-1
 220 139 l 1,3,-1
 365 133 l 1,4,-1
 365 164 l 1,5,-1
 415 164 l 1,6,-1
 419 311 l 1,7,-1
 443 465 l 1,8,-1
 472 476 l 1,9,-1
 472 541 l 1,10,-1
 490 541 l 1,11,-1
 636 557 l 1,12,-1
 636 365 l 1,13,-1
 603 365 l 1,14,-1
 612 197 l 1,15,-1
 636 197 l 1,16,-1
 626 96 l 1,17,-1
 646 96 l 1,18,-1
 646 0 l 1,19,-1
 493 0 l 1,20,-1
 472 54 l 1,21,-1
 458 47 l 1,22,-1
 458 59 l 1,23,-1
 409 18 l 1,24,-1
 409 -31 l 1,25,-1
 289 -31 l 1,26,-1
 289 -12 l 1,27,-1
 234 -32 l 1,28,-1
 234 -33 l 1,29,-1
 231 -33 l 1,30,-1
 203 -43 l 1,31,-1
 44 120 l 1,32,-1
 47 226 l 1,33,-1
 36 225 l 1,34,-1
 36 275 l 1,35,-1
 22 275 l 1,36,-1
 42 372 l 1,37,-1
 56 372 l 1,38,-1
 56 541 l 1,39,-1
 75 541 l 1,40,-1
 220 557 l 1,41,-1
 220 365 l 1,42,-1
 187 365 l 1,43,-1
 195 241 l 1,44,-1
 224 244 l 1,0,-1
EndSplineSet
EndChar

StartChar: v
Encoding: 118 118 89
Width: 550
GlyphClass: 2
Flags: W
LayerCount: 2
Fore
SplineSet
160 549 m 1,0,-1
 173 488 l 1,1,-1
 203 496 l 1,2,-1
 264 329 l 1,3,-1
 233 316 l 1,4,-1
 266 225 l 1,5,-1
 278 228 l 1,6,-1
 373 549 l 1,7,-1
 532 549 l 1,8,-1
 499 446 l 1,9,-1
 528 437 l 1,10,-1
 454 273 l 1,11,-1
 402 291 l 1,12,-1
 382 196 l 1,13,-1
 403 188 l 1,14,-1
 361 97 l 1,15,-1
 381 90 l 1,16,-1
 351 -2 l 1,17,-1
 156 -2 l 1,18,-1
 80 263 l 1,19,-1
 66 260 l 1,20,-1
 62 358 l 1,21,-1
 77 361 l 1,22,-1
 6 526 l 1,23,-1
 24 530 l 1,24,-1
 12 549 l 1,25,-1
 160 549 l 1,0,-1
EndSplineSet
EndChar

StartChar: w
Encoding: 119 119 90
Width: 806
GlyphClass: 2
Flags: W
LayerCount: 2
Fore
SplineSet
779 549 m 1,0,-1
 753 446 l 1,1,-1
 782 437 l 1,2,-1
 738 273 l 1,3,-1
 687 291 l 1,4,-1
 687 196 l 1,5,-1
 709 188 l 1,6,-1
 667 97 l 1,7,-1
 686 90 l 1,8,-1
 656 -2 l 1,9,-1
 461 -2 l 1,10,-1
 375 263 l 1,11,-1
 364 261 l 1,12,-1
 339 196 l 1,13,-1
 360 188 l 1,14,-1
 318 97 l 1,15,-1
 338 90 l 1,16,-1
 308 -2 l 1,17,-1
 113 -2 l 1,18,-1
 57 263 l 1,19,-1
 43 260 l 1,20,-1
 40 358 l 1,21,-1
 54 361 l 1,22,-1
 25 526 l 1,23,-1
 42 530 l 1,24,-1
 31 549 l 1,25,-1
 178 549 l 1,26,-1
 191 488 l 1,27,-1
 221 496 l 1,28,-1
 252 329 l 1,29,-1
 201 316 l 1,30,-1
 223 225 l 1,31,-1
 234 228 l 1,32,-1
 324 526 l 1,33,-1
 483 518 l 1,34,-1
 499 447 l 1,35,-1
 528 455 l 1,36,-1
 569 329 l 1,37,-1
 518 316 l 1,38,-1
 571 225 l 1,39,-1
 583 228 l 1,40,-1
 629 549 l 1,41,-1
 779 549 l 1,0,-1
EndSplineSet
EndChar

StartChar: x
Encoding: 120 120 91
Width: 579
GlyphClass: 2
Flags: W
LayerCount: 2
Fore
SplineSet
547 549 m 1,0,-1
 442 375 l 1,1,-1
 466 357 l 1,2,-1
 416 283 l 1,3,-1
 470 204 l 1,4,-1
 429 171 l 1,5,-1
 488 101 l 1,6,-1
 506 116 l 1,7,-1
 553 30 l 1,8,-1
 568 43 l 1,9,-1
 586 0 l 1,10,-1
 354 0 l 1,11,-1
 322 63 l 1,12,-1
 310 55 l 1,13,-1
 283 138 l 1,14,-1
 232 57 l 1,15,-1
 218 68 l 1,16,-1
 198 0 l 1,17,-1
 11 0 l 1,18,-1
 136 209 l 1,19,-1
 114 226 l 1,20,-1
 214 283 l 1,21,-1
 202 301 l 1,22,-1
 198 319 l 1,23,-1
 110 380 l 1,24,-1
 151 413 l 1,25,-1
 90 482 l 1,26,-1
 73 468 l 1,27,-1
 30 549 l 1,28,-1
 239 549 l 1,29,-1
 258 520 l 1,30,-1
 268 528 l 1,31,-1
 305 368 l 1,32,-1
 368 526 l 1,33,-1
 381 516 l 1,34,-1
 391 549 l 1,35,-1
 547 549 l 1,0,-1
EndSplineSet
EndChar

StartChar: y
Encoding: 121 121 92
Width: 551
GlyphClass: 2
Flags: W
LayerCount: 2
Fore
SplineSet
159 549 m 1,0,-1
 172 488 l 1,1,-1
 202 496 l 1,2,-1
 263 329 l 1,3,-1
 232 316 l 1,4,-1
 265 225 l 1,5,-1
 276 228 l 1,6,-1
 372 549 l 1,7,-1
 531 549 l 1,8,-1
 498 446 l 1,9,-1
 527 437 l 1,10,-1
 478 330 l 1,11,-1
 499 332 l 1,12,-1
 418 139 l 1,13,-1
 385 139 l 1,14,-1
 369 94 l 1,15,-1
 380 90 l 1,16,-1
 350 -2 l 1,17,-1
 335 -2 l 1,18,-1
 325 -29 l 1,19,-1
 347 -29 l 1,20,-1
 295 -129 l 1,21,-1
 315 -129 l 1,22,-1
 275 -225 l 1,23,-1
 122 -225 l 1,24,-1
 127 -116 l 1,25,-1
 174 -2 l 1,26,-1
 155 -2 l 1,27,-1
 79 263 l 1,28,-1
 65 260 l 1,29,-1
 61 358 l 1,30,-1
 76 361 l 1,31,-1
 5 526 l 1,32,-1
 23 530 l 1,33,-1
 11 549 l 1,34,-1
 159 549 l 1,0,-1
EndSplineSet
EndChar

StartChar: z
Encoding: 122 122 93
Width: 563
GlyphClass: 2
Flags: W
LayerCount: 2
Fore
SplineSet
520 193 m 1,0,-1
 520 -2 l 1,1,-1
 227 8 l 1,2,-1
 227 -23 l 1,3,-1
 55 -23 l 1,4,-1
 55 31 l 1,5,-1
 45 119 l 1,6,-1
 33 126 l 1,7,-1
 43 135 l 1,8,-1
 38 182 l 1,9,-1
 38 197 l 1,10,-1
 95 184 l 1,11,-1
 196 279 l 1,12,-1
 184 285 l 1,13,-1
 223 327 l 1,14,-1
 260 331 l 1,15,-1
 294 395 l 1,16,-1
 238 397 l 1,17,-1
 238 367 l 1,18,-1
 66 367 l 1,19,-1
 66 420 l 1,20,-1
 48 571 l 1,21,-1
 48 586 l 1,22,-1
 144 565 l 1,23,-1
 144 551 l 1,24,-1
 313 551 l 1,25,-1
 313 532 l 1,26,-1
 369 550 l 1,27,-1
 410 601 l 1,28,-1
 420 582 l 1,29,-1
 520 582 l 1,30,-1
 520 387 l 1,31,-1
 404 344 l 1,32,-1
 428 332 l 1,33,-1
 340 223 l 1,34,-1
 274 171 l 1,35,-1
 265 162 l 1,36,-1
 303 162 l 1,37,-1
 303 143 l 1,38,-1
 410 174 l 1,39,-1
 410 193 l 1,40,-1
 520 193 l 1,0,-1
EndSplineSet
EndChar

StartChar: braceleft
Encoding: 123 123 94
Width: 401
GlyphClass: 2
Flags: W
LayerCount: 2
Fore
SplineSet
106 592 m 1,0,-1
 125 592 l 1,1,-1
 94 688 l 1,2,-1
 224 811 l 1,3,-1
 224 799 l 1,4,-1
 270 799 l 1,5,-1
 270 797 l 1,6,-1
 381 797 l 1,7,-1
 381 641 l 1,8,-1
 317 643 l 1,9,-1
 317 612 l 1,10,-1
 263 612 l 1,11,-1
 260 510 l 1,12,-1
 242 510 l 1,13,-1
 272 414 l 1,14,-1
 184 330 l 1,15,-1
 272 247 l 1,16,-1
 242 151 l 1,17,-1
 260 151 l 1,18,-1
 263 48 l 1,19,-1
 317 48 l 1,20,-1
 317 17 l 1,21,-1
 381 19 l 1,22,-1
 381 -136 l 1,23,-1
 270 -136 l 1,24,-1
 270 -138 l 1,25,-1
 224 -138 l 1,26,-1
 224 -151 l 1,27,-1
 94 -28 l 1,28,-1
 125 69 l 1,29,-1
 106 69 l 1,30,-1
 103 243 l 1,31,-1
 49 243 l 1,32,-1
 49 273 l 1,33,-1
 16 271 l 1,34,-1
 16 410 l 1,35,-1
 49 408 l 1,36,-1
 49 438 l 1,37,-1
 103 438 l 1,38,-1
 106 592 l 1,0,-1
EndSplineSet
EndChar

StartChar: bar
Encoding: 124 124 95
Width: 242
GlyphClass: 2
Flags: W
LayerCount: 2
Fore
SplineSet
47 719 m 1,0,-1
 184 719 l 1,1,-1
 177 360 l 1,2,-1
 199 360 l 1,3,-1
 199 142 l 1,4,-1
 162 142 l 1,5,-1
 169 19 l 1,6,-1
 184 19 l 1,7,-1
 177 -108 l 1,8,-1
 191 -108 l 1,9,-1
 191 -230 l 1,10,-1
 54 -230 l 1,11,-1
 54 120 l 1,12,-1
 44 120 l 1,13,-1
 58 242 l 1,14,-1
 69 242 l 1,15,-1
 69 457 l 1,16,-1
 82 457 l 1,17,-1
 60 579 l 1,18,-1
 47 579 l 1,19,-1
 47 719 l 1,0,-1
EndSplineSet
EndChar

StartChar: braceright
Encoding: 125 125 96
Width: 401
GlyphClass: 2
Flags: W
LayerCount: 2
Fore
SplineSet
295 69 m 1,0,-1
 276 69 l 1,1,-1
 307 -28 l 1,2,-1
 177 -151 l 1,3,-1
 177 -138 l 1,4,-1
 131 -138 l 1,5,-1
 131 -136 l 1,6,-1
 20 -136 l 1,7,-1
 20 19 l 1,8,-1
 84 17 l 1,9,-1
 84 48 l 1,10,-1
 138 48 l 1,11,-1
 141 151 l 1,12,-1
 160 151 l 1,13,-1
 129 247 l 1,14,-1
 217 330 l 1,15,-1
 129 414 l 1,16,-1
 160 510 l 1,17,-1
 141 510 l 1,18,-1
 138 612 l 1,19,-1
 84 612 l 1,20,-1
 84 643 l 1,21,-1
 20 641 l 1,22,-1
 20 797 l 1,23,-1
 131 797 l 1,24,-1
 131 799 l 1,25,-1
 177 799 l 1,26,-1
 177 811 l 1,27,-1
 307 688 l 1,28,-1
 276 592 l 1,29,-1
 295 592 l 1,30,-1
 298 418 l 1,31,-1
 352 418 l 1,32,-1
 352 387 l 1,33,-1
 385 389 l 1,34,-1
 385 251 l 1,35,-1
 352 253 l 1,36,-1
 352 222 l 1,37,-1
 298 222 l 1,38,-1
 295 69 l 1,0,-1
EndSplineSet
EndChar

StartChar: asciitilde
Encoding: 126 126 97
Width: 569
GlyphClass: 2
Flags: W
LayerCount: 2
Fore
SplineSet
177 316 m 1,0,-1
 176 316 l 1,1,-1
 175 315 l 1,2,-1
 177 316 l 1,0,-1
419 446 m 1,3,-1
 486 379 l 1,4,-1
 493 384 l 1,5,-1
 521 343 l 1,6,-1
 517 247 l 1,7,-1
 477 213 l 1,8,-1
 484 205 l 1,9,-1
 445 166 l 1,10,-1
 278 183 l 1,11,-1
 267 207 l 1,12,-1
 260 214 l 1,13,-1
 263 216 l 1,14,-1
 252 254 l 1,15,-1
 241 245 l 1,16,-1
 184 308 l 1,17,-1
 177 301 l 1,18,-1
 166 314 l 1,19,-1
 176 279 l 1,20,-1
 196 234 l 1,21,-1
 148 162 l 1,22,-1
 81 230 l 1,23,-1
 75 224 l 1,24,-1
 47 265 l 1,25,-1
 51 362 l 1,26,-1
 91 395 l 1,27,-1
 83 403 l 1,28,-1
 122 442 l 1,29,-1
 259 404 l 1,30,-1
 270 381 l 1,31,-1
 276 374 l 1,32,-1
 274 372 l 1,33,-1
 323 333 l 1,34,-1
 333 343 l 1,35,-1
 359 280 l 1,36,-1
 390 307 l 1,37,-1
 402 295 l 1,38,-1
 392 330 l 1,39,-1
 372 374 l 1,40,-1
 419 446 l 1,3,-1
EndSplineSet
EndChar

StartChar: Aacute
Encoding: 193 193 98
Width: 646
Flags: W
LayerCount: 2
Fore
SplineSet
272.73828125 755.29296875 m 29,0,-1
 341.73828125 755.29296875 l 29,1,-1
 365.73828125 716.29296875 l 29,2,-1
 317.73828125 713.29296875 l 29,3,-1
 272.73828125 755.29296875 l 29,0,-1
90.73828125 235.29296875 m 5,4,-1
 165.73828125 481.29296875 l 5,5,-1
 183.73828125 475.29296875 l 5,6,-1
 184.73828125 577.29296875 l 5,7,-1
 166.73828125 582.29296875 l 5,8,-1
 201.73828125 662.29296875 l 5,9,-1
 425.73828125 662.29296875 l 5,10,-1
 484.73828125 402.29296875 l 5,11,-1
 514.73828125 410.29296875 l 5,12,-1
 559.73828125 336.29296875 l 5,13,-1
 506.73828125 323.29296875 l 5,14,-1
 539.73828125 232.29296875 l 5,15,-1
 574.73828125 104.29296875 l 5,16,-1
 593.73828125 97.29296875 l 5,17,-1
 624.73828125 5.29296875 l 5,18,-1
 429.73828125 5.29296875 l 5,19,-1
 401.73828125 118.29296875 l 5,20,-1
 399.73828125 118.29296875 l 5,21,-1
 399.73828125 124.29296875 l 5,22,-1
 398.73828125 132.29296875 l 5,23,-1
 230.73828125 132.29296875 l 5,24,-1
 230.73828125 150.29296875 l 5,25,-1
 224.73828125 146.29296875 l 5,26,-1
 205.73828125 104.29296875 l 5,27,-1
 225.73828125 97.29296875 l 5,28,-1
 194.73828125 5.29296875 l 5,29,-1
 -31.26171875 5.29296875 l 5,30,-1
 48.73828125 185.29296875 l 5,31,-1
 90.73828125 235.29296875 l 5,4,-1
328.73828125 392.29296875 m 5,32,-1
 322.73828125 453.29296875 l 5,33,-1
 296.73828125 392.29296875 l 5,34,-1
 245.73828125 321.29296875 l 5,35,-1
 246.73828125 298.29296875 l 5,36,-1
 244.73828125 289.29296875 l 5,37,-1
 306.73828125 316.29296875 l 5,38,-1
 348.73828125 316.29296875 l 5,39,-1
 347.73828125 365.29296875 l 5,40,-1
 360.73828125 368.29296875 l 5,41,-1
 328.73828125 392.29296875 l 5,32,-1
EndSplineSet
EndChar

StartChar: Eacute
Encoding: 201 201 99
Width: 616
Flags: W
LayerCount: 2
Fore
SplineSet
243 762 m 29,0,-1
 318 762 l 25,1,-1
 336 726 l 25,2,-1
 276 720 l 25,3,-1
 243 762 l 29,0,-1
564 674 m 1,4,-1
 564 480 l 1,5,-1
 282 490 l 1,6,-1
 282 459 l 1,7,-1
 230 459 l 1,8,-1
 227 363 l 1,9,-1
 258 363 l 1,10,-1
 258 355 l 1,11,-1
 375 351 l 1,12,-1
 375 381 l 1,13,-1
 516 381 l 1,14,-1
 516 328 l 1,15,-1
 532 279 l 1,16,-1
 532 264 l 1,17,-1
 436 285 l 1,18,-1
 436 299 l 1,19,-1
 298 299 l 1,20,-1
 298 317 l 1,21,-1
 257 304 l 1,22,-1
 257 293 l 1,23,-1
 221 293 l 1,24,-1
 205 288 l 1,25,-1
 214 197 l 1,26,-1
 237 197 l 1,27,-1
 233 162 l 1,28,-1
 356 162 l 1,29,-1
 356 143 l 1,30,-1
 463 174 l 1,31,-1
 463 193 l 1,32,-1
 573 193 l 1,33,-1
 573 -2 l 1,34,-1
 281 8 l 1,35,-1
 281 -23 l 1,36,-1
 109 -23 l 1,37,-1
 109 0 l 1,38,-1
 52 0 l 1,39,-1
 52 275 l 1,40,-1
 38 275 l 1,41,-1
 58 372 l 1,42,-1
 73 372 l 1,43,-1
 74 439 l 1,44,-1
 92 439 l 1,45,-1
 61 535 l 1,46,-1
 43 535 l 1,47,-1
 43 646 l 1,48,-1
 94 646 l 1,49,-1
 92 664 l 1,50,-1
 92 678 l 1,51,-1
 188 658 l 1,52,-1
 188 646 l 1,53,-1
 238 646 l 1,54,-1
 238 643 l 1,55,-1
 357 643 l 1,56,-1
 357 625 l 1,57,-1
 454 656 l 1,58,-1
 454 674 l 1,59,-1
 564 674 l 1,4,-1
EndSplineSet
EndChar

StartChar: Iacute
Encoding: 205 205 100
Width: 293
Flags: W
LayerCount: 2
Fore
SplineSet
129 749 m 25,0,-1
 177 752 l 25,1,-1
 192 692 l 25,2,-1
 153 695 l 25,3,-1
 129 749 l 25,0,-1
45 663 m 1,4,-1
 240 663 l 1,5,-1
 229 380 l 1,6,-1
 260 380 l 1,7,-1
 257 293 l 1,8,-1
 204 293 l 1,9,-1
 214 197 l 1,10,-1
 237 197 l 1,11,-1
 226 96 l 1,12,-1
 247 96 l 1,13,-1
 247 0 l 1,14,-1
 52 0 l 1,15,-1
 52 275 l 1,16,-1
 38 275 l 1,17,-1
 58 372 l 1,18,-1
 73 372 l 1,19,-1
 76 456 l 1,20,-1
 94 456 l 1,21,-1
 63 552 l 1,22,-1
 45 552 l 1,23,-1
 45 663 l 1,4,-1
EndSplineSet
EndChar

StartChar: Oacute
Encoding: 211 211 101
Width: 651
Flags: W
LayerCount: 2
Fore
SplineSet
228 756 m 29,0,-1
 309 744 l 25,1,-1
 327 699 l 25,2,-1
 267 708 l 25,3,-1
 228 756 l 29,0,-1
193 435 m 1,4,-1
 190 339 l 1,5,-1
 221 339 l 1,6,-1
 229 247 l 1,7,-1
 175 247 l 1,8,-1
 186 151 l 1,9,-1
 208 151 l 1,10,-1
 204 115 l 1,11,-1
 366 110 l 1,12,-1
 366 140 l 1,13,-1
 413 140 l 1,14,-1
 413 229 l 1,15,-1
 399 229 l 1,16,-1
 419 326 l 1,17,-1
 433 326 l 1,18,-1
 425 415 l 1,19,-1
 444 415 l 1,20,-1
 429 460 l 1,21,-1
 247 466 l 1,22,-1
 247 435 l 1,23,-1
 193 435 l 1,4,-1
395 617 m 1,24,-1
 395 622 l 1,25,-1
 408 622 l 1,26,-1
 440 632 l 1,27,-1
 440 650 l 1,28,-1
 585 505 l 1,29,-1
 579 339 l 1,30,-1
 610 339 l 1,31,-1
 618 247 l 1,32,-1
 564 247 l 1,33,-1
 575 151 l 1,34,-1
 597 120 l 1,35,-1
 423 0 l 1,36,-1
 423 2 l 1,37,-1
 280 2 l 1,38,-1
 280 20 l 1,39,-1
 228 4 l 1,40,-1
 228 0 l 1,41,-1
 215 0 l 1,42,-1
 183 -10 l 1,43,-1
 24 82 l 1,44,-1
 24 229 l 1,45,-1
 9 229 l 1,46,-1
 30 326 l 1,47,-1
 44 326 l 1,48,-1
 36 415 l 1,49,-1
 55 415 l 1,50,-1
 24 511 l 1,51,-1
 154 634 l 1,52,-1
 154 622 l 1,53,-1
 200 622 l 1,54,-1
 200 619 l 1,55,-1
 343 619 l 1,56,-1
 343 601 l 1,57,-1
 395 617 l 1,24,-1
EndSplineSet
EndChar

StartChar: Uacute
Encoding: 218 218 102
Width: 652
Flags: W
LayerCount: 2
Fore
SplineSet
250 755 m 29,0,-1
 358 746 l 25,1,-1
 367 701 l 25,2,-1
 301 704 l 25,3,-1
 250 755 l 29,0,-1
38 608 m 1,4,-1
 232 608 l 1,5,-1
 213 377 l 1,6,-1
 244 377 l 1,7,-1
 253 293 l 1,8,-1
 200 293 l 1,9,-1
 210 197 l 1,10,-1
 232 197 l 1,11,-1
 228 161 l 1,12,-1
 370 156 l 1,13,-1
 370 186 l 1,14,-1
 417 186 l 1,15,-1
 417 275 l 1,16,-1
 402 275 l 1,17,-1
 414 284 l 1,18,-1
 428 284 l 1,19,-1
 428 453 l 1,20,-1
 447 453 l 1,21,-1
 425 497 l 1,22,-1
 407 497 l 1,23,-1
 407 608 l 1,24,-1
 601 608 l 1,25,-1
 582 377 l 1,26,-1
 613 377 l 1,27,-1
 622 293 l 1,28,-1
 568 293 l 1,29,-1
 579 197 l 1,30,-1
 601 166 l 1,31,-1
 417 0 l 1,32,-1
 417 2 l 1,33,-1
 294 2 l 1,34,-1
 294 20 l 1,35,-1
 243 4 l 1,36,-1
 243 0 l 1,37,-1
 229 0 l 1,38,-1
 198 -10 l 1,39,-1
 48 128 l 1,40,-1
 48 275 l 1,41,-1
 34 275 l 1,42,-1
 45 284 l 1,43,-1
 60 284 l 1,44,-1
 60 453 l 1,45,-1
 78 453 l 1,46,-1
 56 497 l 1,47,-1
 38 497 l 1,48,-1
 38 608 l 1,4,-1
EndSplineSet
EndChar

StartChar: aacute
Encoding: 225 225 103
Width: 689
Flags: W
LayerCount: 2
Fore
SplineSet
268 707 m 29,0,-1
 361 704 l 25,1,-1
 379 644 l 25,2,-1
 295 662 l 25,3,-1
 268 707 l 29,0,-1
394 371 m 1,4,-1
 278 375 l 1,5,-1
 278 344 l 1,6,-1
 230 344 l 1,7,-1
 230 184 l 1,8,-1
 212 184 l 1,9,-1
 226 139 l 1,10,-1
 371 133 l 1,11,-1
 371 164 l 1,12,-1
 422 164 l 1,13,-1
 425 311 l 1,14,-1
 394 311 l 1,15,-1
 394 371 l 1,4,-1
642 557 m 1,16,-1
 642 365 l 1,17,-1
 609 365 l 1,18,-1
 620 197 l 1,19,-1
 642 197 l 1,20,-1
 632 96 l 1,21,-1
 652 96 l 1,22,-1
 652 0 l 1,23,-1
 499 0 l 1,24,-1
 478 54 l 1,25,-1
 464 47 l 1,26,-1
 464 59 l 1,27,-1
 415 18 l 1,28,-1
 415 -31 l 1,29,-1
 295 -31 l 1,30,-1
 295 -12 l 1,31,-1
 241 -32 l 1,32,-1
 241 -33 l 1,33,-1
 238 -33 l 1,34,-1
 209 -43 l 1,35,-1
 50 120 l 1,36,-1
 56 311 l 1,37,-1
 26 311 l 1,38,-1
 46 483 l 1,39,-1
 150 549 l 1,40,-1
 150 563 l 1,41,-1
 225 543 l 1,42,-1
 225 528 l 1,43,-1
 353 528 l 1,44,-1
 353 510 l 1,45,-1
 450 465 l 1,46,-1
 478 476 l 1,47,-1
 478 541 l 1,48,-1
 497 541 l 1,49,-1
 642 557 l 1,16,-1
EndSplineSet
EndChar

StartChar: Ugrave
Encoding: 217 217 104
Width: 652
Flags: W
LayerCount: 2
Fore
SplineSet
250 755 m 29,0,-1
 358 746 l 25,1,-1
 367 701 l 25,2,-1
 301 704 l 25,3,-1
 250 755 l 29,0,-1
38 608 m 1,4,-1
 232 608 l 1,5,-1
 213 377 l 1,6,-1
 244 377 l 1,7,-1
 253 293 l 1,8,-1
 200 293 l 1,9,-1
 210 197 l 1,10,-1
 232 197 l 1,11,-1
 228 161 l 1,12,-1
 370 156 l 1,13,-1
 370 186 l 1,14,-1
 417 186 l 1,15,-1
 417 275 l 1,16,-1
 402 275 l 1,17,-1
 414 284 l 1,18,-1
 428 284 l 1,19,-1
 428 453 l 1,20,-1
 447 453 l 1,21,-1
 425 497 l 1,22,-1
 407 497 l 1,23,-1
 407 608 l 1,24,-1
 601 608 l 1,25,-1
 582 377 l 1,26,-1
 613 377 l 1,27,-1
 622 293 l 1,28,-1
 568 293 l 1,29,-1
 579 197 l 1,30,-1
 601 166 l 1,31,-1
 417 0 l 1,32,-1
 417 2 l 1,33,-1
 294 2 l 1,34,-1
 294 20 l 1,35,-1
 243 4 l 1,36,-1
 243 0 l 1,37,-1
 229 0 l 1,38,-1
 198 -10 l 1,39,-1
 48 128 l 1,40,-1
 48 275 l 1,41,-1
 34 275 l 1,42,-1
 45 284 l 1,43,-1
 60 284 l 1,44,-1
 60 453 l 1,45,-1
 78 453 l 1,46,-1
 56 497 l 1,47,-1
 38 497 l 1,48,-1
 38 608 l 1,4,-1
EndSplineSet
EndChar

StartChar: agrave
Encoding: 224 224 105
Width: 689
Flags: W
LayerCount: 2
Fore
SplineSet
268 707 m 29,0,-1
 361 704 l 25,1,-1
 379 644 l 25,2,-1
 295 662 l 25,3,-1
 268 707 l 29,0,-1
394 371 m 1,4,-1
 278 375 l 1,5,-1
 278 344 l 1,6,-1
 230 344 l 1,7,-1
 230 184 l 1,8,-1
 212 184 l 1,9,-1
 226 139 l 1,10,-1
 371 133 l 1,11,-1
 371 164 l 1,12,-1
 422 164 l 1,13,-1
 425 311 l 1,14,-1
 394 311 l 1,15,-1
 394 371 l 1,4,-1
642 557 m 1,16,-1
 642 365 l 1,17,-1
 609 365 l 1,18,-1
 620 197 l 1,19,-1
 642 197 l 1,20,-1
 632 96 l 1,21,-1
 652 96 l 1,22,-1
 652 0 l 1,23,-1
 499 0 l 1,24,-1
 478 54 l 1,25,-1
 464 47 l 1,26,-1
 464 59 l 1,27,-1
 415 18 l 1,28,-1
 415 -31 l 1,29,-1
 295 -31 l 1,30,-1
 295 -12 l 1,31,-1
 241 -32 l 1,32,-1
 241 -33 l 1,33,-1
 238 -33 l 1,34,-1
 209 -43 l 1,35,-1
 50 120 l 1,36,-1
 56 311 l 1,37,-1
 26 311 l 1,38,-1
 46 483 l 1,39,-1
 150 549 l 1,40,-1
 150 563 l 1,41,-1
 225 543 l 1,42,-1
 225 528 l 1,43,-1
 353 528 l 1,44,-1
 353 510 l 1,45,-1
 450 465 l 1,46,-1
 478 476 l 1,47,-1
 478 541 l 1,48,-1
 497 541 l 1,49,-1
 642 557 l 1,16,-1
EndSplineSet
EndChar

StartChar: Ograve
Encoding: 210 210 106
Width: 651
Flags: W
LayerCount: 2
Fore
SplineSet
228 756 m 29,0,-1
 309 744 l 25,1,-1
 327 699 l 25,2,-1
 267 708 l 25,3,-1
 228 756 l 29,0,-1
193 435 m 1,4,-1
 190 339 l 1,5,-1
 221 339 l 1,6,-1
 229 247 l 1,7,-1
 175 247 l 1,8,-1
 186 151 l 1,9,-1
 208 151 l 1,10,-1
 204 115 l 1,11,-1
 366 110 l 1,12,-1
 366 140 l 1,13,-1
 413 140 l 1,14,-1
 413 229 l 1,15,-1
 399 229 l 1,16,-1
 419 326 l 1,17,-1
 433 326 l 1,18,-1
 425 415 l 1,19,-1
 444 415 l 1,20,-1
 429 460 l 1,21,-1
 247 466 l 1,22,-1
 247 435 l 1,23,-1
 193 435 l 1,4,-1
395 617 m 1,24,-1
 395 622 l 1,25,-1
 408 622 l 1,26,-1
 440 632 l 1,27,-1
 440 650 l 1,28,-1
 585 505 l 1,29,-1
 579 339 l 1,30,-1
 610 339 l 1,31,-1
 618 247 l 1,32,-1
 564 247 l 1,33,-1
 575 151 l 1,34,-1
 597 120 l 1,35,-1
 423 0 l 1,36,-1
 423 2 l 1,37,-1
 280 2 l 1,38,-1
 280 20 l 1,39,-1
 228 4 l 1,40,-1
 228 0 l 1,41,-1
 215 0 l 1,42,-1
 183 -10 l 1,43,-1
 24 82 l 1,44,-1
 24 229 l 1,45,-1
 9 229 l 1,46,-1
 30 326 l 1,47,-1
 44 326 l 1,48,-1
 36 415 l 1,49,-1
 55 415 l 1,50,-1
 24 511 l 1,51,-1
 154 634 l 1,52,-1
 154 622 l 1,53,-1
 200 622 l 1,54,-1
 200 619 l 1,55,-1
 343 619 l 1,56,-1
 343 601 l 1,57,-1
 395 617 l 1,24,-1
EndSplineSet
EndChar

StartChar: Igrave
Encoding: 204 204 107
Width: 293
Flags: W
LayerCount: 2
Fore
SplineSet
129 749 m 25,0,-1
 177 752 l 25,1,-1
 192 692 l 25,2,-1
 153 695 l 25,3,-1
 129 749 l 25,0,-1
45 663 m 1,4,-1
 240 663 l 1,5,-1
 229 380 l 1,6,-1
 260 380 l 1,7,-1
 257 293 l 1,8,-1
 204 293 l 1,9,-1
 214 197 l 1,10,-1
 237 197 l 1,11,-1
 226 96 l 1,12,-1
 247 96 l 1,13,-1
 247 0 l 1,14,-1
 52 0 l 1,15,-1
 52 275 l 1,16,-1
 38 275 l 1,17,-1
 58 372 l 1,18,-1
 73 372 l 1,19,-1
 76 456 l 1,20,-1
 94 456 l 1,21,-1
 63 552 l 1,22,-1
 45 552 l 1,23,-1
 45 663 l 1,4,-1
EndSplineSet
EndChar

StartChar: Egrave
Encoding: 200 200 108
Width: 616
Flags: W
LayerCount: 2
Fore
SplineSet
243 762 m 29,0,-1
 318 762 l 25,1,-1
 336 726 l 25,2,-1
 276 720 l 25,3,-1
 243 762 l 29,0,-1
564 674 m 1,4,-1
 564 480 l 1,5,-1
 282 490 l 1,6,-1
 282 459 l 1,7,-1
 230 459 l 1,8,-1
 227 363 l 1,9,-1
 258 363 l 1,10,-1
 258 355 l 1,11,-1
 375 351 l 1,12,-1
 375 381 l 1,13,-1
 516 381 l 1,14,-1
 516 328 l 1,15,-1
 532 279 l 1,16,-1
 532 264 l 1,17,-1
 436 285 l 1,18,-1
 436 299 l 1,19,-1
 298 299 l 1,20,-1
 298 317 l 1,21,-1
 257 304 l 1,22,-1
 257 293 l 1,23,-1
 221 293 l 1,24,-1
 205 288 l 1,25,-1
 214 197 l 1,26,-1
 237 197 l 1,27,-1
 233 162 l 1,28,-1
 356 162 l 1,29,-1
 356 143 l 1,30,-1
 463 174 l 1,31,-1
 463 193 l 1,32,-1
 573 193 l 1,33,-1
 573 -2 l 1,34,-1
 281 8 l 1,35,-1
 281 -23 l 1,36,-1
 109 -23 l 1,37,-1
 109 0 l 1,38,-1
 52 0 l 1,39,-1
 52 275 l 1,40,-1
 38 275 l 1,41,-1
 58 372 l 1,42,-1
 73 372 l 1,43,-1
 74 439 l 1,44,-1
 92 439 l 1,45,-1
 61 535 l 1,46,-1
 43 535 l 1,47,-1
 43 646 l 1,48,-1
 94 646 l 1,49,-1
 92 664 l 1,50,-1
 92 678 l 1,51,-1
 188 658 l 1,52,-1
 188 646 l 1,53,-1
 238 646 l 1,54,-1
 238 643 l 1,55,-1
 357 643 l 1,56,-1
 357 625 l 1,57,-1
 454 656 l 1,58,-1
 454 674 l 1,59,-1
 564 674 l 1,4,-1
EndSplineSet
EndChar

StartChar: Agrave
Encoding: 192 192 109
Width: 646
Flags: W
LayerCount: 2
Fore
SplineSet
272.73828125 755.29296875 m 29,0,-1
 341.73828125 755.29296875 l 29,1,-1
 365.73828125 716.29296875 l 29,2,-1
 317.73828125 713.29296875 l 29,3,-1
 272.73828125 755.29296875 l 29,0,-1
90.73828125 235.29296875 m 5,4,-1
 165.73828125 481.29296875 l 5,5,-1
 183.73828125 475.29296875 l 5,6,-1
 184.73828125 577.29296875 l 5,7,-1
 166.73828125 582.29296875 l 5,8,-1
 201.73828125 662.29296875 l 5,9,-1
 425.73828125 662.29296875 l 5,10,-1
 484.73828125 402.29296875 l 5,11,-1
 514.73828125 410.29296875 l 5,12,-1
 559.73828125 336.29296875 l 5,13,-1
 506.73828125 323.29296875 l 5,14,-1
 539.73828125 232.29296875 l 5,15,-1
 574.73828125 104.29296875 l 5,16,-1
 593.73828125 97.29296875 l 5,17,-1
 624.73828125 5.29296875 l 5,18,-1
 429.73828125 5.29296875 l 5,19,-1
 401.73828125 118.29296875 l 5,20,-1
 399.73828125 118.29296875 l 5,21,-1
 399.73828125 124.29296875 l 5,22,-1
 398.73828125 132.29296875 l 5,23,-1
 230.73828125 132.29296875 l 5,24,-1
 230.73828125 150.29296875 l 5,25,-1
 224.73828125 146.29296875 l 5,26,-1
 205.73828125 104.29296875 l 5,27,-1
 225.73828125 97.29296875 l 5,28,-1
 194.73828125 5.29296875 l 5,29,-1
 -31.26171875 5.29296875 l 5,30,-1
 48.73828125 185.29296875 l 5,31,-1
 90.73828125 235.29296875 l 5,4,-1
328.73828125 392.29296875 m 5,32,-1
 322.73828125 453.29296875 l 5,33,-1
 296.73828125 392.29296875 l 5,34,-1
 245.73828125 321.29296875 l 5,35,-1
 246.73828125 298.29296875 l 5,36,-1
 244.73828125 289.29296875 l 5,37,-1
 306.73828125 316.29296875 l 5,38,-1
 348.73828125 316.29296875 l 5,39,-1
 347.73828125 365.29296875 l 5,40,-1
 360.73828125 368.29296875 l 5,41,-1
 328.73828125 392.29296875 l 5,32,-1
EndSplineSet
EndChar

StartChar: egrave
Encoding: 232 232 110
Width: 612
Flags: W
LayerCount: 2
Fore
SplineSet
208 746 m 29,0,-1
 304 734 l 25,1,-1
 322 674 l 25,2,-1
 256 686 l 25,3,-1
 208 746 l 29,0,-1
219 169 m 1,4,-1
 217 151 l 1,5,-1
 358 145 l 1,6,-1
 358 176 l 1,7,-1
 406 176 l 1,8,-1
 406 209 l 1,9,-1
 566 209 l 1,10,-1
 567 197 l 1,11,-1
 590 104 l 1,12,-1
 406 -10 l 1,13,-1
 406 -8 l 1,14,-1
 283 -8 l 1,15,-1
 283 10 l 1,16,-1
 231 -6 l 1,17,-1
 231 -10 l 1,18,-1
 218 -10 l 1,19,-1
 186 -20 l 1,20,-1
 37 118 l 1,21,-1
 37 275 l 1,22,-1
 23 275 l 1,23,-1
 43 372 l 1,24,-1
 57 372 l 1,25,-1
 57 438 l 1,26,-1
 152 553 l 1,27,-1
 214 561 l 1,28,-1
 214 551 l 1,29,-1
 336 545 l 1,30,-1
 336 575 l 1,31,-1
 451 549 l 1,32,-1
 563 438 l 1,33,-1
 573 380 l 1,34,-1
 539 329 l 1,35,-1
 544 321 l 1,36,-1
 472 301 l 1,37,-1
 467 309 l 1,38,-1
 354 256 l 1,39,-1
 348 266 l 1,40,-1
 295 218 l 1,41,-1
 302 208 l 1,42,-1
 219 169 l 1,4,-1
398 391 m 1,43,-1
 301 391 l 1,44,-1
 301 410 l 1,45,-1
 242 390 l 1,46,-1
 242 323 l 1,47,-1
 398 391 l 1,43,-1
EndSplineSet
EndChar

StartChar: eacute
Encoding: 233 233 111
Width: 612
Flags: W
LayerCount: 2
Fore
SplineSet
208 746 m 29,0,-1
 304 734 l 25,1,-1
 322 674 l 25,2,-1
 256 686 l 25,3,-1
 208 746 l 29,0,-1
219 169 m 1,4,-1
 217 151 l 1,5,-1
 358 145 l 1,6,-1
 358 176 l 1,7,-1
 406 176 l 1,8,-1
 406 209 l 1,9,-1
 566 209 l 1,10,-1
 567 197 l 1,11,-1
 590 104 l 1,12,-1
 406 -10 l 1,13,-1
 406 -8 l 1,14,-1
 283 -8 l 1,15,-1
 283 10 l 1,16,-1
 231 -6 l 1,17,-1
 231 -10 l 1,18,-1
 218 -10 l 1,19,-1
 186 -20 l 1,20,-1
 37 118 l 1,21,-1
 37 275 l 1,22,-1
 23 275 l 1,23,-1
 43 372 l 1,24,-1
 57 372 l 1,25,-1
 57 438 l 1,26,-1
 152 553 l 1,27,-1
 214 561 l 1,28,-1
 214 551 l 1,29,-1
 336 545 l 1,30,-1
 336 575 l 1,31,-1
 451 549 l 1,32,-1
 563 438 l 1,33,-1
 573 380 l 1,34,-1
 539 329 l 1,35,-1
 544 321 l 1,36,-1
 472 301 l 1,37,-1
 467 309 l 1,38,-1
 354 256 l 1,39,-1
 348 266 l 1,40,-1
 295 218 l 1,41,-1
 302 208 l 1,42,-1
 219 169 l 1,4,-1
398 391 m 1,43,-1
 301 391 l 1,44,-1
 301 410 l 1,45,-1
 242 390 l 1,46,-1
 242 323 l 1,47,-1
 398 391 l 1,43,-1
EndSplineSet
EndChar

StartChar: igrave
Encoding: 236 236 112
Width: 276
Flags: W
LayerCount: 2
Fore
SplineSet
85 728 m 29,0,-1
 205 728 l 25,1,-1
 232 632 l 25,2,-1
 148 641 l 25,3,-1
 85 728 l 29,0,-1
226 557 m 1,4,-1
 226 365 l 1,5,-1
 194 365 l 1,6,-1
 204 197 l 1,7,-1
 226 197 l 1,8,-1
 216 96 l 1,9,-1
 237 96 l 1,10,-1
 237 0 l 1,11,-1
 83 0 l 1,12,-1
 42 110 l 1,13,-1
 42 275 l 1,14,-1
 28 275 l 1,15,-1
 48 372 l 1,16,-1
 62 372 l 1,17,-1
 62 541 l 1,18,-1
 81 541 l 1,19,-1
 226 557 l 1,4,-1
EndSplineSet
EndChar

StartChar: iacute
Encoding: 237 237 113
Width: 276
Flags: W
LayerCount: 2
Fore
SplineSet
85 728 m 29,0,-1
 205 728 l 25,1,-1
 232 632 l 25,2,-1
 148 641 l 25,3,-1
 85 728 l 29,0,-1
226 557 m 1,4,-1
 226 365 l 1,5,-1
 194 365 l 1,6,-1
 204 197 l 1,7,-1
 226 197 l 1,8,-1
 216 96 l 1,9,-1
 237 96 l 1,10,-1
 237 0 l 1,11,-1
 83 0 l 1,12,-1
 42 110 l 1,13,-1
 42 275 l 1,14,-1
 28 275 l 1,15,-1
 48 372 l 1,16,-1
 62 372 l 1,17,-1
 62 541 l 1,18,-1
 81 541 l 1,19,-1
 226 557 l 1,4,-1
EndSplineSet
EndChar

StartChar: ograve
Encoding: 242 242 114
Width: 637
Flags: W
LayerCount: 2
Fore
SplineSet
259 719 m 29,0,-1
 322 716 l 25,1,-1
 355 665 l 25,2,-1
 283 669.5 l 24,3,4
 238 695 238 695 259 719 c 29,0,-1
584 438 m 1,5,-1
 610 293 l 1,6,-1
 557 293 l 1,7,-1
 567 197 l 1,8,-1
 590 166 l 1,9,-1
 406 -10 l 1,10,-1
 406 -8 l 1,11,-1
 283 -8 l 1,12,-1
 283 10 l 1,13,-1
 231 -6 l 1,14,-1
 231 -10 l 1,15,-1
 218 -10 l 1,16,-1
 186 -20 l 1,17,-1
 37 118 l 1,18,-1
 37 275 l 1,19,-1
 23 275 l 1,20,-1
 43 372 l 1,21,-1
 57 372 l 1,22,-1
 57 438 l 1,23,-1
 152 553 l 1,24,-1
 214 561 l 1,25,-1
 214 551 l 1,26,-1
 356 545 l 1,27,-1
 356 575 l 1,28,-1
 471 549 l 1,29,-1
 584 438 l 1,5,-1
242 390 m 1,30,-1
 242 293 l 1,31,-1
 188 293 l 1,32,-1
 199 186 l 1,33,-1
 221 186 l 1,34,-1
 217 151 l 1,35,-1
 358 145 l 1,36,-1
 358 176 l 1,37,-1
 406 176 l 1,38,-1
 406 275 l 1,39,-1
 391 275 l 1,40,-1
 412 372 l 1,41,-1
 426 372 l 1,42,-1
 426 376 l 1,43,-1
 419 377 l 1,44,-1
 419 391 l 1,45,-1
 301 391 l 1,46,-1
 301 410 l 1,47,-1
 242 390 l 1,30,-1
EndSplineSet
EndChar

StartChar: oacute
Encoding: 243 243 115
Width: 637
Flags: W
LayerCount: 2
Fore
SplineSet
259 719 m 29,0,-1
 322 716 l 25,1,-1
 355 665 l 25,2,-1
 283 669.5 l 24,3,4
 238 695 238 695 259 719 c 29,0,-1
584 438 m 1,5,-1
 610 293 l 1,6,-1
 557 293 l 1,7,-1
 567 197 l 1,8,-1
 590 166 l 1,9,-1
 406 -10 l 1,10,-1
 406 -8 l 1,11,-1
 283 -8 l 1,12,-1
 283 10 l 1,13,-1
 231 -6 l 1,14,-1
 231 -10 l 1,15,-1
 218 -10 l 1,16,-1
 186 -20 l 1,17,-1
 37 118 l 1,18,-1
 37 275 l 1,19,-1
 23 275 l 1,20,-1
 43 372 l 1,21,-1
 57 372 l 1,22,-1
 57 438 l 1,23,-1
 152 553 l 1,24,-1
 214 561 l 1,25,-1
 214 551 l 1,26,-1
 356 545 l 1,27,-1
 356 575 l 1,28,-1
 471 549 l 1,29,-1
 584 438 l 1,5,-1
242 390 m 1,30,-1
 242 293 l 1,31,-1
 188 293 l 1,32,-1
 199 186 l 1,33,-1
 221 186 l 1,34,-1
 217 151 l 1,35,-1
 358 145 l 1,36,-1
 358 176 l 1,37,-1
 406 176 l 1,38,-1
 406 275 l 1,39,-1
 391 275 l 1,40,-1
 412 372 l 1,41,-1
 426 372 l 1,42,-1
 426 376 l 1,43,-1
 419 377 l 1,44,-1
 419 391 l 1,45,-1
 301 391 l 1,46,-1
 301 410 l 1,47,-1
 242 390 l 1,30,-1
EndSplineSet
EndChar

StartChar: ugrave
Encoding: 249 249 116
Width: 683
Flags: WO
LayerCount: 2
Fore
SplineSet
270 746 m 29,0,-1
 387 731 l 25,1,-1
 408 648.5 l 24,2,-1
 318 662 l 25,3,-1
 270 746 l 29,0,-1
224 244 m 1,4,-1
 224 184 l 1,5,-1
 206 184 l 1,6,-1
 220 139 l 1,7,-1
 365 133 l 1,8,-1
 365 164 l 1,9,-1
 415 164 l 1,10,-1
 419 311 l 1,11,-1
 443 465 l 1,12,-1
 472 476 l 1,13,-1
 472 541 l 1,14,-1
 490 541 l 1,15,-1
 636 557 l 1,16,-1
 636 365 l 1,17,-1
 603 365 l 1,18,-1
 612 197 l 1,19,-1
 636 197 l 1,20,-1
 626 96 l 1,21,-1
 646 96 l 1,22,-1
 646 0 l 1,23,-1
 493 0 l 1,24,-1
 472 54 l 1,25,-1
 458 47 l 1,26,-1
 458 59 l 1,27,-1
 409 18 l 1,28,-1
 409 -31 l 1,29,-1
 289 -31 l 1,30,-1
 289 -12 l 1,31,-1
 234 -32 l 1,32,-1
 234 -33 l 1,33,-1
 231 -33 l 1,34,-1
 203 -43 l 1,35,-1
 44 120 l 1,36,-1
 47 226 l 1,37,-1
 36 225 l 1,38,-1
 36 275 l 1,39,-1
 22 275 l 1,40,-1
 42 372 l 1,41,-1
 56 372 l 1,42,-1
 56 541 l 1,43,-1
 75 541 l 1,44,-1
 220 557 l 1,45,-1
 220 365 l 1,46,-1
 187 365 l 1,47,-1
 195 241 l 1,48,-1
 224 244 l 1,4,-1
EndSplineSet
EndChar

StartChar: uacute
Encoding: 250 250 117
Width: 683
Flags: W
LayerCount: 2
Fore
SplineSet
270 746 m 29,0,-1
 387 731 l 25,1,-1
 408 648.5 l 24,2,-1
 318 662 l 25,3,-1
 270 746 l 29,0,-1
224 244 m 1,4,-1
 224 184 l 1,5,-1
 206 184 l 1,6,-1
 220 139 l 1,7,-1
 365 133 l 1,8,-1
 365 164 l 1,9,-1
 415 164 l 1,10,-1
 419 311 l 1,11,-1
 443 465 l 1,12,-1
 472 476 l 1,13,-1
 472 541 l 1,14,-1
 490 541 l 1,15,-1
 636 557 l 1,16,-1
 636 365 l 1,17,-1
 603 365 l 1,18,-1
 612 197 l 1,19,-1
 636 197 l 1,20,-1
 626 96 l 1,21,-1
 646 96 l 1,22,-1
 646 0 l 1,23,-1
 493 0 l 1,24,-1
 472 54 l 1,25,-1
 458 47 l 1,26,-1
 458 59 l 1,27,-1
 409 18 l 1,28,-1
 409 -31 l 1,29,-1
 289 -31 l 1,30,-1
 289 -12 l 1,31,-1
 234 -32 l 1,32,-1
 234 -33 l 1,33,-1
 231 -33 l 1,34,-1
 203 -43 l 1,35,-1
 44 120 l 1,36,-1
 47 226 l 1,37,-1
 36 225 l 1,38,-1
 36 275 l 1,39,-1
 22 275 l 1,40,-1
 42 372 l 1,41,-1
 56 372 l 1,42,-1
 56 541 l 1,43,-1
 75 541 l 1,44,-1
 220 557 l 1,45,-1
 220 365 l 1,46,-1
 187 365 l 1,47,-1
 195 241 l 1,48,-1
 224 244 l 1,4,-1
EndSplineSet
EndChar
